<?xml version="1.0" encoding="UTF-8" standalone="no"?>
<!-- Created with Inkscape (http://www.inkscape.org/) -->

<svg
   xmlns:dc="http://purl.org/dc/elements/1.1/"
   xmlns:cc="http://creativecommons.org/ns#"
   xmlns:rdf="http://www.w3.org/1999/02/22-rdf-syntax-ns#"
   xmlns:svg="http://www.w3.org/2000/svg"
   xmlns="http://www.w3.org/2000/svg"
   xmlns:sodipodi="http://sodipodi.sourceforge.net/DTD/sodipodi-0.dtd"
   xmlns:inkscape="http://www.inkscape.org/namespaces/inkscape"
   width="71.007317"
   height="22.957043"
   id="svg2614"
   sodipodi:version="0.32"
   inkscape:version="0.48.2 r9819"
   version="1.0"
   sodipodi:docname="AJAX.svg"
   inkscape:output_extension="org.inkscape.output.svg.inkscape">
  <defs
     id="defs2616">
    <inkscape:perspective
       sodipodi:type="inkscape:persp3d"
       inkscape:vp_x="0 : 32 : 1"
       inkscape:vp_y="0 : 1000 : 0"
       inkscape:vp_z="64 : 32 : 1"
       inkscape:persp3d-origin="32 : 21.333333 : 1"
       id="perspective2622" />
  </defs>
  <sodipodi:namedview
     id="base"
     pagecolor="#ffffff"
     bordercolor="#666666"
     borderopacity="1.0"
     inkscape:pageopacity="0.0"
     inkscape:pageshadow="2"
     inkscape:zoom="5.5"
     inkscape:cx="28.958206"
     inkscape:cy="16.842155"
     inkscape:current-layer="layer1"
     showgrid="true"
     inkscape:document-units="px"
     inkscape:grid-bbox="true"
     inkscape:window-width="1280"
     inkscape:window-height="1004"
     inkscape:window-x="-8"
     inkscape:window-y="-8"
     fit-margin-top="0"
     fit-margin-left="0"
     fit-margin-right="0"
     fit-margin-bottom="0"
     inkscape:window-maximized="1" />
  <metadata
     id="metadata2619">
    <rdf:RDF>
      <cc:Work
         rdf:about="">
        <dc:format>image/svg+xml</dc:format>
        <dc:type
           rdf:resource="http://purl.org/dc/dcmitype/StillImage" />
      </cc:Work>
    </rdf:RDF>
  </metadata>
  <g
     id="layer1"
     inkscape:label="Layer 1"
     inkscape:groupmode="layer"
     transform="translate(-3.041794,-1.4305671)">
    <path
       sodipodi:type="arc"
       style="fill:#0a306c;fill-opacity:1;fill-rule:evenodd;stroke:none"
       id="path2400"
       sodipodi:cx="336.3808"
       sodipodi:cy="621.91095"
       sodipodi:rx="10.354064"
       sodipodi:ry="11.364216"
       d="m 346.73486,621.91095 c 0,6.27628 -4.63567,11.36422 -10.35406,11.36422 -5.71839,0 -10.35407,-5.08794 -10.35407,-11.36422 0,-6.27628 4.63568,-11.36422 10.35407,-11.36422 5.71839,0 10.35406,5.08794 10.35406,11.36422 z"
       transform="matrix(1.0781128,0,0,1.0100584,-313.81372,-615.25729)" />
    <path
       sodipodi:type="arc"
       style="fill:#9ad142;fill-opacity:1;fill-rule:evenodd;stroke:none"
       id="path2402"
       sodipodi:cx="337.58035"
       sodipodi:cy="623.71027"
       sodipodi:rx="5.8083773"
       sodipodi:ry="5.7136755"
       d="m 343.38873,623.71027 c 0,3.15557 -2.6005,5.71367 -5.80838,5.71367 -3.20788,0 -5.80837,-2.5581 -5.80837,-5.71367 0,-3.15558 2.60049,-5.71368 5.80837,-5.71368 3.20788,0 5.80838,2.5581 5.80838,5.71368 z"
       transform="translate(-288.76919,-610.35928)" />
    <path
       sodipodi:type="arc"
       style="fill:#ff8000;fill-opacity:1;fill-rule:evenodd;stroke:none"
       id="path2404"
       sodipodi:cx="337.58035"
       sodipodi:cy="623.71027"
       sodipodi:rx="5.8083773"
       sodipodi:ry="5.7136755"
       d="m 343.38873,623.71027 c 0,3.15557 -2.6005,5.71367 -5.80838,5.71367 -3.20788,0 -5.80837,-2.5581 -5.80837,-5.71367 0,-3.15558 2.60049,-5.71368 5.80837,-5.71368 3.20788,0 5.80838,2.5581 5.80838,5.71368 z"
       transform="translate(-283.40275,-610.26458)" />
    <path
       style="fill:#ffffff;fill-opacity:1;fill-rule:evenodd;stroke:none"
       d="m 51.130557,18.33041 c -0.73999,-0.44165 -1.4795,-1.16504 -1.9315,-1.88944 -0.40043,-0.64172 -0.67869,-1.39005 -0.80356,-2.16099 -0.05271,-0.32539 -0.053,-1.34496 -4.9e-4,-1.67307 0.2768,-1.72942 1.31986,-3.2353405 2.84417,-4.1063105 l 0.29802,-0.17028 0.17549,0.09808 c 0.32484,0.18155 0.79424,0.5371 1.11374,0.84362 1.76281,1.6912105 2.24536,4.2795105 1.21026,6.4916205 -0.47223,1.00919 -1.30117,1.90393 -2.32045,2.50465 -0.18137,0.10689 -0.33763,0.19427 -0.34724,0.19418 -0.0096,-10e-5 -0.11691,-0.05952 -0.23844,-0.13206 l 0,0 z"
       id="path3176"
       inkscape:connector-curvature="0" />
    <path
       sodipodi:type="arc"
       style="fill:#0a306c;fill-opacity:1;fill-rule:evenodd;stroke:none"
       id="path3178"
       sodipodi:cx="337.58035"
       sodipodi:cy="623.71027"
       sodipodi:rx="5.8083773"
       sodipodi:ry="5.7136755"
       d="m 343.38873,623.71027 c 0,3.15557 -2.6005,5.71367 -5.80838,5.71367 -3.20788,0 -5.80837,-2.5581 -5.80837,-5.71367 0,-3.15558 2.60049,-5.71368 5.80837,-5.71368 3.20788,0 5.80838,2.5581 5.80838,5.71368 z"
       transform="translate(-269.33962,-610.39085)" />
    <path
       transform="matrix(1.781266,0,0,1.6178451,-511.91542,-988.57899)"
       style="font-size:11px;font-style:normal;font-variant:normal;font-weight:bold;font-stretch:normal;text-align:start;line-height:100%;writing-mode:lr-tb;text-anchor:start;fill:#001a5c;fill-opacity:1;stroke:none;font-family:Malgun Gothic;-inkscape-font-specification:Malgun Gothic Bold"
       d="m 293.67236,623.26017 -4.57617,0 0,-7.90625 4.39893,0 0,1.27295 -2.86817,0 0,2.01416 2.66407,0 0,1.26758 -2.66407,0 0,2.08398 3.04541,0 0,1.26758 z m 1.35352,0 0,-7.90625 2.69092,0 c 0.81282,10e-6 1.4484,0.16204 1.90674,0.48609 0.45832,0.32406 0.68749,0.77613 0.6875,1.3562 -10e-6,0.42253 -0.13429,0.79582 -0.40284,1.11987 -0.26856,0.32406 -0.63021,0.55591 -1.08496,0.69556 l 0,0.0161 c 0.55859,0.0716 1.0026,0.2793 1.33203,0.62305 0.32942,0.34375 0.49414,0.76986 0.49414,1.27832 0,0.70898 -0.25423,1.27474 -0.76269,1.69726 -0.50847,0.42253 -1.18881,0.63379 -2.04102,0.63379 l -2.81982,0 z m 1.53076,-6.72998 0,2.07324 0.83252,0 c 0.41178,10e-6 0.73405,-0.0976 0.9668,-0.29272 0.23274,-0.19514 0.34911,-0.46997 0.34912,-0.82446 -1e-5,-0.63737 -0.45476,-0.95605 -1.36426,-0.95606 l -0.78418,0 z m 0,3.25489 0,2.29882 1.05274,0 c 0.45116,0 0.80207,-0.10384 1.05273,-0.31152 0.25065,-0.20768 0.37597,-0.49593 0.37598,-0.86475 -1e-5,-0.74837 -0.49415,-1.12255 -1.48243,-1.12255 l -0.99902,0 z m 5.10791,1.60058 c 0.62663,0.51921 1.34456,0.77881 2.15381,0.77881 0.48698,0 0.85042,-0.085 1.09033,-0.25513 0.23991,-0.17008 0.35986,-0.39298 0.35986,-0.6687 0,-0.2399 -0.10026,-0.46012 -0.30078,-0.66064 -0.20052,-0.20052 -0.68571,-0.46549 -1.45556,-0.79492 -0.65528,-0.29362 -1.13062,-0.62394 -1.42603,-0.99097 -0.29541,-0.36702 -0.44311,-0.7976 -0.44311,-1.29175 0,-0.71256 0.27571,-1.27026 0.82714,-1.6731 0.55144,-0.40282 1.27474,-0.60424 2.16993,-0.60424 0.80208,0 1.43407,0.10027 1.89599,0.30078 l 0,1.46631 c -0.51205,-0.35091 -1.12972,-0.52636 -1.85302,-0.52637 -0.42611,10e-6 -0.77076,0.0806 -1.03394,0.2417 -0.26319,0.16114 -0.39478,0.38314 -0.39478,0.66601 0,0.2256 0.0913,0.43149 0.27393,0.61768 0.18261,0.1862 0.61051,0.4279 1.28369,0.7251 0.77343,0.33659 1.31054,0.69019 1.61133,1.06079 0.30078,0.37061 0.45117,0.81372 0.45117,1.32934 0,0.7448 -0.26587,1.31324 -0.79761,1.70533 -0.53174,0.39209 -1.27742,0.58813 -2.23706,0.58813 -0.8916,0 -1.6167,-0.1486 -2.17529,-0.4458 l 0,-1.56836 z"
       id="flowRoot2606"
       inkscape:connector-curvature="0" />
  </g>
</svg>
