<?xml version="1.0" encoding="UTF-8" standalone="no"?>
<!-- Created with Inkscape (http://www.inkscape.org/) -->

<svg
   xmlns:dc="http://purl.org/dc/elements/1.1/"
   xmlns:cc="http://creativecommons.org/ns#"
   xmlns:rdf="http://www.w3.org/1999/02/22-rdf-syntax-ns#"
   xmlns:svg="http://www.w3.org/2000/svg"
   xmlns="http://www.w3.org/2000/svg"
   version="1.1"
   width="300"
   height="174.70702"
   id="svg133">
  <defs
     id="defs135" />
  <metadata
     id="metadata138">
    <rdf:RDF>
      <cc:Work
         rdf:about="">
        <dc:format>image/svg+xml</dc:format>
        <dc:type
           rdf:resource="http://purl.org/dc/dcmitype/StillImage" />
        <dc:title></dc:title>
      </cc:Work>
    </rdf:RDF>
  </metadata>
  <g
     transform="translate(-212.86493,-227.49112)"
     id="layer1">
    <g
       transform="matrix(3.6213703,0,0,3.6213703,212.86493,214.88335)"
       id="g80">
      <path
         d="m 56.650628,3.4814919 24.574761,0 0,23.1377681 -24.574761,0 L 56.650628,3.4814919 Z M 72.133141,6.7038394 C 72.02863,6.6820622 71.917592,6.6733608 71.802197,6.6428822 L 71.671561,6.627637 C 71.484316,6.601509 71.301427,6.581913 71.101118,6.562317 70.970482,6.547072 70.842024,6.542721 70.709212,6.536189 70.47189,6.516593 70.254163,6.512242 70.029905,6.512242 c -0.100149,0 -0.163294,0.00439 -0.263449,0.00439 -0.193776,0 -0.370134,0.019596 -0.539961,0.026128 -0.104511,0.00439 -0.206839,0.015245 -0.309171,0.019596 -0.143699,0.015245 -0.283044,0.026128 -0.424566,0.056606 l -0.126282,0.00865 -0.13499,0.015245 -0.156762,0.030479 c -0.07185,0.00865 -0.1437,0.019596 -0.211195,0.041361 -0.0958,0.013064 -0.193776,0.028309 -0.289576,0.054437 -0.576974,0.1219262 -1.125644,0.2830442 -1.608997,0.4789975 -0.263448,0.100149 -0.51601,0.2133714 -0.744624,0.3287668 -0.200308,0.091448 -0.381021,0.191599 -0.566088,0.2982847 -0.178535,0.095798 -0.335299,0.2024852 -0.507302,0.302639 -0.09145,0.06967 -0.180713,0.1306359 -0.27869,0.1959544 -0.06967,0.056607 -0.143699,0.106681 -0.219903,0.1632946 -0.152409,0.1153942 -0.309171,0.2460301 -0.450693,0.3679575 -0.128458,0.1197496 -0.252562,0.2373216 -0.378844,0.3527158 -0.100149,0.1001609 -0.209017,0.2024852 -0.298285,0.3222349 -0.106681,0.1066809 -0.202485,0.2177268 -0.296108,0.339653 -0.104511,0.1197498 -0.195953,0.2460318 -0.289576,0.3831988 -0.08055,0.0958 -0.141522,0.195954 -0.209017,0.30264 -0.05226,0.07185 -0.09362,0.137168 -0.130636,0.202485 -0.263448,0.424566 -0.483352,0.873082 -0.672773,1.347725 -0.230791,0.600925 -0.396262,1.245394 -0.487707,1.918169 -0.02395,0.222081 -0.04354,0.439806 -0.05879,0.666242 -0.01306,0.172004 -0.01741,0.344007 -0.01741,0.516011 0,0.134991 0,0.265626 0.0044,0.391907 0.01306,0.132813 0.02831,0.259095 0.04354,0.400617 l 0.0044,0.0958 c 0.02395,0.156762 0.04572,0.306993 0.0762,0.459401 0.01525,0.06532 0.02395,0.115394 0.03483,0.180713 0.02613,0.121927 0.05879,0.241677 0.08273,0.367957 0.04572,0.156763 0.09145,0.313527 0.150231,0.472467 0.05444,0.185067 0.128458,0.372312 0.200309,0.553025 0.119749,0.272158 0.250384,0.546492 0.385375,0.807764 0.08273,0.148054 0.172003,0.291753 0.254739,0.439807 0.07185,0.104511 0.148054,0.217725 0.213373,0.324412 0.0958,0.13499 0.198131,0.265626 0.298284,0.391907 0.100149,0.141522 0.211195,0.256917 0.317881,0.387553 0.128458,0.148053 0.256916,0.285221 0.38973,0.409325 l 0.06532,0.06749 c 0.108862,0.100161 0.222081,0.211195 0.348362,0.333121 0.0958,0.06967 0.187244,0.150232 0.291753,0.23079 0.08927,0.07185 0.187245,0.148054 0.291753,0.224259 0.128459,0.08927 0.25474,0.169826 0.391907,0.272158 0.154587,0.08055 0.306995,0.180712 0.46158,0.276512 0.330944,0.176357 0.688014,0.359248 1.086454,0.51601 0.141522,0.06097 0.296108,0.111044 0.459403,0.161118 0.152408,0.06096 0.313525,0.111044 0.472465,0.156763 0.287399,0.0762 0.587861,0.156762 0.89921,0.215549 0.248208,0.04572 0.518188,0.09145 0.783814,0.117575 0.26998,0.03484 0.542138,0.05879 0.829537,0.0762 0.145877,0.0087 0.287399,0.0087 0.428922,0.01525 l 0.206839,0 c 0.50948,0 0.988477,-0.01525 1.432638,-0.05661 l 0.09145,-0.01091 c 0.176358,-0.0087 0.344007,-0.02831 0.505125,-0.05007 0.263448,-0.03484 0.492061,-0.06967 0.722851,-0.115395 0.145876,-0.01525 0.287399,-0.05007 0.422389,-0.08055 0.217727,-0.04572 0.409326,-0.0958 0.611811,-0.145876 0.13499,-0.03701 0.272158,-0.0762 0.409324,-0.117575 0.158941,-0.03919 0.302641,-0.09145 0.452871,-0.145877 l 0.141522,-0.04572 c 0.07185,-0.02395 0.16765,-0.06096 0.276513,-0.106681 0.148054,-0.05444 0.324412,-0.119749 0.522543,-0.215549 0.130636,-0.04572 0.261272,-0.111043 0.398439,-0.167649 0.111043,-0.06097 0.241677,-0.119749 0.370135,-0.180712 0.05007,-0.02178 0.108862,-0.06097 0.15894,-0.0762 l 0,-3.161384 c -0.03701,0.02613 -0.07403,0.05226 -0.108862,0.0762 l -0.215549,0.121928 c -0.215549,0.14152 -0.422389,0.256916 -0.633584,0.374488 -0.228612,0.11975 -0.457225,0.239499 -0.677128,0.352717 -0.38973,0.169826 -0.768574,0.326589 -1.123467,0.463757 -0.694547,0.241676 -1.319422,0.394084 -1.874623,0.494238 -0.07185,0.01091 -0.132814,0.02613 -0.198131,0.03701 -0.154586,0.01741 -0.30264,0.03919 -0.446339,0.05443 -0.217727,0.02613 -0.415858,0.03484 -0.598747,0.03919 -0.130636,0.0065 -0.228613,0.01741 -0.337477,0.01741 -0.222079,0 -0.459401,-0.01091 -0.692368,-0.02178 -0.274336,-0.02395 -0.548671,-0.05444 -0.838247,-0.100149 -0.455047,-0.08057 -0.912272,-0.198131 -1.35208,-0.354895 -0.0762,-0.02395 -0.137167,-0.05007 -0.202485,-0.08055 -0.04572,-0.01306 -0.08492,-0.02831 -0.134991,-0.05444 -0.06967,-0.03048 -0.143698,-0.05444 -0.215549,-0.09145 -0.15894,-0.0762 -0.306993,-0.156763 -0.461579,-0.241677 -0.06532,-0.04572 -0.137168,-0.08491 -0.217726,-0.12628 -0.0762,-0.05007 -0.148054,-0.0958 -0.226435,-0.152408 -0.08709,-0.05444 -0.178536,-0.130636 -0.267804,-0.195955 -0.08708,-0.06532 -0.172004,-0.145876 -0.252562,-0.206839 l -0.09798,-0.0958 -0.05661,-0.04572 -0.02831,-0.02395 -0.03484,-0.04136 c -0.145877,-0.137168 -0.274335,-0.283045 -0.398439,-0.424567 -0.06314,-0.07403 -0.119749,-0.161118 -0.189422,-0.241677 -0.05226,-0.08055 -0.104512,-0.152408 -0.148054,-0.232966 -0.05879,-0.0762 -0.113213,-0.145877 -0.143699,-0.226435 -0.06749,-0.106681 -0.126281,-0.213373 -0.189422,-0.328767 -0.03701,-0.0958 -0.07838,-0.187245 -0.121927,-0.283044 -0.06532,-0.156763 -0.121926,-0.322235 -0.167648,-0.468112 -0.04137,-0.111043 -0.07402,-0.243853 -0.106681,-0.359249 -0.07402,-0.324411 -0.11975,-0.620519 -0.148054,-0.879613 -0.01741,-0.104512 -0.01741,-0.195953 -0.02395,-0.276512 -0.0021,-0.126282 -0.0021,-0.232968 -0.0021,-0.317881 l 0,-0.198131 c 0.0021,-0.180713 0.02613,-0.413679 0.05444,-0.670597 0.03048,-0.161116 0.05879,-0.328766 0.106681,-0.509479 0.02831,-0.121926 0.06096,-0.232967 0.08927,-0.359248 0.04137,-0.111043 0.0762,-0.222081 0.132813,-0.348363 0.02395,-0.06967 0.05443,-0.15023 0.09362,-0.226435 0.04791,-0.106681 0.09362,-0.213371 0.152408,-0.317879 0.04137,-0.08492 0.09145,-0.165473 0.134991,-0.248208 0.108862,-0.176359 0.219903,-0.357072 0.357071,-0.529076 0.04354,-0.0762 0.09362,-0.130636 0.145876,-0.198131 0.06532,-0.0762 0.13499,-0.165471 0.211195,-0.237321 0.03484,-0.03919 0.0762,-0.07838 0.115394,-0.126281 0.581329,-0.579152 1.227977,-1.003719 1.896397,-1.3128899 0.104511,-0.043543 0.215549,-0.095798 0.315703,-0.1349902 0.115394,-0.045724 0.215549,-0.080553 0.328766,-0.1219273 0.104512,-0.034841 0.226436,-0.060969 0.348362,-0.1001491 0.104512,-0.034841 0.228613,-0.060969 0.333121,-0.087085 0.113213,-0.023947 0.23079,-0.050075 0.337475,-0.06967 0.115395,-0.019596 0.232968,-0.034841 0.359249,-0.056606 0.121927,-0.013064 0.241676,-0.023947 0.36578,-0.034841 0.228613,-0.019596 0.450693,-0.034841 0.66842,-0.034841 0.08709,0 0.154585,0 0.22208,0.010906 0.172004,0 0.324413,0.00439 0.478999,0.013064 0.106681,0.010906 0.215549,0.010906 0.322235,0.021777 0.193775,0.019596 0.394084,0.045724 0.572619,0.080553 0.15894,0.015245 0.320058,0.045724 0.468112,0.06967 0.224258,0.045724 0.431097,0.095798 0.622696,0.1524084 0.113213,0.030479 0.222082,0.054437 0.328767,0.091448 0.145877,0.043543 0.280867,0.084916 0.383198,0.1153942 0.169827,0.06532 0.272158,0.100149 0.272158,0.100149 0.150232,0.056606 0.304817,0.1219274 0.452871,0.1828899 0.206839,0.0762 0.394084,0.156763 0.576975,0.246031 0.15023,0.07185 0.29393,0.137167 0.433275,0.19813 0.111043,0.06532 0.217726,0.115395 0.315702,0.165473 0.172005,0.09145 0.320059,0.178535 0.441985,0.232967 l 0.313526,0.176359 0,-3.0938908 c 0,0 -0.191599,-0.084916 -0.520366,-0.2111949 C 75.497106,7.6618154 75.322925,7.6008582 75.122617,7.5311818 75.011574,7.485458 74.898359,7.4440968 74.7699,7.4049002 c -0.09798,-0.030479 -0.193776,-0.06967 -0.298284,-0.095798 -0.121928,-0.045724 -0.232968,-0.084916 -0.36578,-0.1306359 -0.09145,-0.015245 -0.182891,-0.050075 -0.285222,-0.080553 l -0.08709,-0.019596 c -0.08492,-0.026128 -0.176357,-0.047905 -0.267803,-0.082734 -0.115394,-0.019596 -0.237321,-0.054437 -0.34183,-0.091448 -0.0762,-0.00865 -0.156763,-0.028309 -0.232967,-0.039192 -0.121927,-0.030479 -0.241677,-0.06532 -0.367957,-0.091448 -0.126282,-0.019596 -0.252563,-0.045724 -0.38973,-0.06967"
         id="path3128"
         style="fill:#000000;fill-opacity:1;fill-rule:evenodd;stroke:none" />
      <g
         transform="matrix(2.1772625,0,0,-2.1772625,37.762875,16.275521)"
         id="g3130"
         style="fill:#000000">
        <path
           d="m 0,0 0,-2.087 1.354,0 c 0,0 0.027,0.003 0.066,0.003 0.052,0.002 0.115,0.006 0.196,0.011 0.143,0.014 0.339,0.037 0.529,0.104 0.169,0.056 0.333,0.142 0.459,0.269 0.049,0.049 0.09,0.1 0.125,0.151 0.102,0.17 0.13,0.339 0.137,0.436 10e-4,0.04 10e-4,0.065 10e-4,0.065 0,0 0.002,0.018 0,0.049 0,0.042 -0.003,0.12 -0.027,0.203 -0.023,0.101 -0.071,0.214 -0.157,0.321 -0.017,0.016 -0.037,0.037 -0.055,0.058 -0.036,0.037 -0.075,0.072 -0.119,0.109 -0.076,0.048 -0.161,0.099 -0.253,0.137 -0.12,0.053 -0.258,0.092 -0.411,0.122 -0.073,0.014 -0.157,0.028 -0.239,0.031 -0.05,0.009 -0.1,0.009 -0.154,0.013 C 1.405,0 1.354,0 1.306,0 L 0,0 Z"
           id="path3132"
           style="fill:#000000;fill-opacity:1;fill-rule:evenodd;stroke:none" />
      </g>
      <g
         transform="matrix(2.1772625,0,0,-2.1772625,37.762875,9.3633657)"
         id="g3134"
         style="fill:#000000">
        <path
           d="m 0,0 0,-1.976 0.653,0 0.103,0 c 0.049,0 0.096,0 0.146,0.007 0.137,0.01 0.324,0.03 0.508,0.079 0.039,0.012 0.077,0.023 0.11,0.035 0.147,0.055 0.285,0.127 0.4,0.236 0.085,0.086 0.142,0.181 0.179,0.272 0.048,0.116 0.065,0.222 0.069,0.301 0.007,0.072 0.007,0.109 0.007,0.109 0,0 0,0.035 -0.002,0.086 C 2.168,-0.765 2.152,-0.624 2.084,-0.492 2.05,-0.425 2.005,-0.362 1.943,-0.301 1.868,-0.232 1.781,-0.172 1.686,-0.13 1.5,-0.046 1.286,-0.017 1.111,-0.007 1.032,0 0.96,0 0.902,0 L 0,0 Z"
           id="path3136"
           style="fill:#000000;fill-opacity:1;fill-rule:evenodd;stroke:none" />
      </g>
      <path
         d="m 28.32662,3.4814919 24.581293,0 0,23.1377681 -24.581293,0 L 28.32662,3.4814919 z m 6.446874,3.2462977 0,16.6647674 6.277048,0 c 0,0 3.059054,0.0762 4.744255,-1.604643 1.373852,-1.378207 1.275876,-2.969786 1.275876,-2.969786 0,0 0.09798,-1.652542 -1.173544,-2.937127 -1.088632,-1.075567 -2.469017,-1.367321 -2.469017,-1.367321 0,0 0.624875,-0.287399 1.103872,-0.777282 0.224258,-0.226436 1.025492,-0.944932 1.025492,-2.695451 0,-1.7722926 -1.180078,-2.7934283 -1.180078,-2.7934283 0,0 -1.291116,-1.5197291 -4.195584,-1.5197291 L 34.773494,6.7277896 Z"
         id="path3138"
         style="fill:#000000;fill-opacity:1;fill-rule:evenodd;stroke:none" />
      <g
         transform="matrix(2.1772625,0,0,-2.1772625,9.436473,16.275521)"
         id="g3140"
         style="fill:#000000">
        <path
           d="m 0,0 0,-2.087 1.356,0 c 0,0 0.026,0.003 0.07,0.003 0.044,0.002 0.111,0.006 0.191,0.011 0.145,0.014 0.337,0.037 0.527,0.104 0.169,0.056 0.335,0.142 0.465,0.269 0.047,0.049 0.085,0.1 0.12,0.151 0.102,0.17 0.13,0.339 0.137,0.436 0.004,0.04 0.004,0.065 0.004,0.065 l 0,0.049 C 2.866,-0.957 2.862,-0.879 2.843,-0.796 2.816,-0.695 2.769,-0.582 2.684,-0.475 2.669,-0.459 2.65,-0.438 2.632,-0.417 2.592,-0.38 2.553,-0.345 2.511,-0.308 2.434,-0.26 2.349,-0.209 2.258,-0.171 2.136,-0.118 2,-0.079 1.848,-0.049 1.776,-0.035 1.695,-0.021 1.609,-0.018 1.561,-0.009 1.507,-0.009 1.456,-0.005 1.41,0 1.358,0 1.312,0 L 0,0 Z"
           id="path3142"
           style="fill:#000000;fill-opacity:1;fill-rule:evenodd;stroke:none" />
      </g>
      <g
         transform="matrix(2.1772625,0,0,-2.1772625,9.436473,9.3633657)"
         id="g3144"
         style="fill:#000000">
        <path
           d="m 0,0 0,-1.976 0.656,0 0.102,0 c 0.044,0 0.102,0 0.148,0.007 0.133,0.01 0.323,0.03 0.508,0.079 0.037,0.012 0.07,0.023 0.109,0.035 0.145,0.055 0.286,0.127 0.394,0.236 0.087,0.086 0.144,0.181 0.184,0.272 0.044,0.116 0.064,0.222 0.069,0.301 0.007,0.072 0.007,0.109 0.007,0.109 l 0,0.086 C 2.17,-0.765 2.154,-0.624 2.086,-0.492 2.052,-0.425 2.004,-0.362 1.948,-0.301 1.871,-0.232 1.781,-0.172 1.681,-0.13 1.499,-0.046 1.289,-0.017 1.108,-0.007 1.033,0 0.963,0 0.906,0 L 0,0 Z"
           id="path3146"
           style="fill:#000000;fill-opacity:1;fill-rule:evenodd;stroke:none" />
      </g>
      <path
         d="m 4.3573427e-4,3.4814919 24.58129326573,0 0,23.1377681 -24.58129326573,0 L 4.3573427e-4,3.4814919 Z M 6.4494863,6.7277896 l 0,16.6647674 6.2726927,0 c 0,0 3.059055,0.0762 4.74861,-1.604643 1.371675,-1.378207 1.271522,-2.969786 1.271522,-2.969786 0,0 0.100149,-1.652542 -1.171368,-2.937127 -1.090808,-1.075567 -2.471192,-1.367321 -2.471192,-1.367321 0,0 0.627052,-0.287399 1.106049,-0.777282 0.226435,-0.226436 1.029845,-0.944932 1.029845,-2.695451 0,-1.7722926 -1.180077,-2.7934283 -1.180077,-2.7934283 0,0 -1.282407,-1.5197291 -4.19123,-1.5197291 L 6.4494863,6.7277896 Z"
         id="path3148"
         style="fill:#000000;fill-opacity:1;fill-rule:evenodd;stroke:none" />
      <g
         transform="matrix(2.1772625,0,0,-2.1772625,2.7433508,34.702346)"
         id="g3150"
         style="fill:#000000">
        <path
           d="M 0,0 0.813,0 C 2.033,0 2.527,-0.503 2.538,-1.326 2.549,-2.062 2.164,-2.757 0.813,-2.757 L 0,-2.757 0,0 z m -1.26,1.08 0,-8.783 1.26,0 0,3.81 0.529,0 c 0.646,0 1.171,-0.202 2.333,-2.008 l 1.159,-1.802 1.504,0 c -0.603,0.835 -0.823,1.134 -1.199,1.737 -0.668,1.097 -1.159,1.908 -1.954,2.435 0.939,0.375 1.468,1.133 1.468,2.151 0,1.521 -1.109,2.46 -2.885,2.46 L -1.26,1.08 Z"
           id="path3152"
           style="fill:#000000;fill-opacity:1;fill-rule:evenodd;stroke:none" />
      </g>
      <g
         transform="matrix(2.1772625,0,0,-2.1772625,23.760901,36.448729)"
         id="g3154"
         style="fill:#000000">
        <path
           d="m 0,0 1.418,-3.177 -2.731,0 L 0,0 z m 0.465,1.934 -0.893,0 -3.772,-8.834 1.287,0 1.111,2.587 3.733,0 1.173,-2.587 1.284,0 L 0.465,1.934 Z"
           id="path3156"
           style="fill:#000000;fill-opacity:1;fill-rule:evenodd;stroke:none" />
      </g>
      <g
         transform="matrix(2.1772625,0,0,-2.1772625,38.350955,34.818395)"
         id="g3158"
         style="fill:#000000">
        <path
           d="m 0,0 1.94,0 c 2.464,0 3.583,-1.496 3.583,-3.26 0,-1.081 -0.656,-3.256 -3.514,-3.256 L 0,-6.516 0,0 z m -1.262,-7.649 3.425,0 c 2.898,0 4.66,2.138 4.66,4.389 0,2.075 -1.429,4.394 -4.673,4.394 l -3.412,0 L -1.262,-7.649 Z"
           id="path3160"
           style="fill:#000000;fill-opacity:1;fill-rule:evenodd;stroke:none" />
      </g>
      <path
         d="m 56.175985,51.472711 3.143966,0 0,-19.122896 -3.143966,0 L 56.175985,51.472711 Z"
         id="path3162"
         style="fill:#000000;fill-opacity:1;fill-rule:nonzero;stroke:none" />
      <g
         transform="matrix(2.1772625,0,0,-2.1772625,65.118654,41.91627)"
         id="g3164"
         style="fill:#000000">
        <path
           d="M 0,0 C 0,1.934 1.457,3.348 3.415,3.348 5.385,3.348 6.84,1.934 6.84,0 6.84,-1.915 5.385,-3.346 3.415,-3.346 1.457,-3.346 0,-1.915 0,0 m -1.3,0 c 0,-2.379 1.817,-4.505 4.689,-4.505 2.973,0 4.751,2.14 4.751,4.505 0,2.448 -1.827,4.51 -4.725,4.51 C 0.569,4.51 -1.3,2.437 -1.3,0"
           id="path3166"
           style="fill:#000000;fill-opacity:1;fill-rule:evenodd;stroke:none" />
      </g>
    </g>
  </g>
</svg>
