<?xml version="1.0" encoding="UTF-8" standalone="no"?>
<!-- Created with Inkscape (http://www.inkscape.org/) -->
<svg
   xmlns:dc="http://purl.org/dc/elements/1.1/"
   xmlns:cc="http://web.resource.org/cc/"
   xmlns:rdf="http://www.w3.org/1999/02/22-rdf-syntax-ns#"
   xmlns:svg="http://www.w3.org/2000/svg"
   xmlns="http://www.w3.org/2000/svg"
   xmlns:xlink="http://www.w3.org/1999/xlink"
   xmlns:sodipodi="http://sodipodi.sourceforge.net/DTD/sodipodi-0.dtd"
   xmlns:inkscape="http://www.inkscape.org/namespaces/inkscape"
   width="277"
   height="110"
   id="svg2"
   sodipodi:version="0.32"
   inkscape:version="0.45.1"
   version="1.0"
   inkscape:output_extension="org.inkscape.output.svg.inkscape">
  <g
     inkscape:label="Layer 1"
     inkscape:groupmode="layer"
     id="layer1"
     transform="translate(-119.97279,-467.91569)">
    <g
       id="g2822"
       transform="matrix(1,0,0,-1,207.74489,417.97292)" />
    <g
       id="g3432"
       clip-path="url(#id203)"
       transform="matrix(3.3064599,0,0,-3.3064599,-20.527758,1507.7292)">
      <g
         id="g3434"
         transform="translate(86.474304,314.48019)">
        <path
           id="path3436"
           d="M 0,0 C -9.181,0 -16.624,-7.447 -16.624,-16.633 C -16.624,-25.82 -9.181,-33.267 0,-33.267 C 9.182,-33.267 16.624,-25.82 16.624,-16.633 C 16.624,-7.447 9.182,0 0,0"
           style="fill:#ffffff;fill-rule:nonzero;stroke:none" />
      </g>
      <path
         id="path3438"
         d="M 58.15,313.455 L 64.893,313.455 L 64.893,307.11 L 58.15,307.11 L 58.15,313.455 z M 62.399,312.571 C 62.37,312.577 62.338,312.581 62.308,312.587 L 62.271,312.592 C 62.22,312.599 62.169,312.605 62.115,312.61 C 62.079,312.614 62.042,312.615 62.008,312.617 C 61.943,312.622 61.881,312.624 61.821,312.624 C 61.793,312.624 61.776,312.623 61.749,312.623 C 61.697,312.622 61.648,312.619 61.599,312.615 C 61.572,312.614 61.544,312.612 61.517,312.61 C 61.477,312.606 61.438,312.602 61.398,312.596 L 61.365,312.593 L 61.328,312.587 L 61.284,312.579 C 61.265,312.577 61.245,312.573 61.227,312.569 C 61.199,312.566 61.173,312.559 61.148,312.554 C 60.987,312.52 60.839,312.476 60.704,312.423 C 60.633,312.395 60.565,312.365 60.502,312.333 C 60.447,312.307 60.397,312.279 60.346,312.251 C 60.298,312.224 60.252,312.195 60.207,312.166 C 60.183,312.148 60.157,312.133 60.132,312.114 C 60.111,312.098 60.091,312.084 60.07,312.069 C 60.028,312.036 59.986,312.001 59.947,311.967 C 59.912,311.935 59.877,311.903 59.844,311.871 C 59.816,311.844 59.786,311.815 59.761,311.783 C 59.732,311.753 59.705,311.722 59.68,311.69 C 59.651,311.656 59.626,311.622 59.6,311.585 C 59.578,311.558 59.561,311.53 59.542,311.501 C 59.528,311.482 59.517,311.464 59.506,311.443 C 59.435,311.33 59.374,311.207 59.322,311.076 C 59.259,310.911 59.214,310.734 59.189,310.549 C 59.183,310.489 59.177,310.429 59.172,310.367 C 59.168,310.32 59.168,310.272 59.168,310.225 C 59.168,310.188 59.168,310.153 59.168,310.118 C 59.172,310.081 59.177,310.045 59.18,310.009 L 59.183,309.983 C 59.188,309.939 59.195,309.897 59.203,309.856 C 59.206,309.839 59.209,309.824 59.213,309.807 C 59.22,309.773 59.229,309.738 59.236,309.704 C 59.248,309.662 59.26,309.619 59.276,309.576 C 59.293,309.525 59.312,309.474 59.331,309.425 C 59.364,309.348 59.401,309.274 59.437,309.203 C 59.461,309.162 59.484,309.122 59.508,309.082 C 59.527,309.053 59.546,309.023 59.566,308.994 C 59.592,308.955 59.62,308.919 59.647,308.884 C 59.675,308.847 59.705,308.814 59.736,308.78 C 59.77,308.739 59.806,308.701 59.841,308.666 L 59.859,308.648 C 59.89,308.62 59.92,308.589 59.956,308.557 C 59.981,308.538 60.007,308.516 60.034,308.494 C 60.059,308.474 60.087,308.453 60.115,308.432 C 60.15,308.407 60.184,308.384 60.222,308.358 C 60.264,308.335 60.307,308.307 60.351,308.282 C 60.44,308.232 60.538,308.184 60.647,308.14 C 60.686,308.123 60.729,308.11 60.772,308.095 C 60.815,308.079 60.859,308.066 60.903,308.053 C 60.982,308.032 61.064,308.011 61.149,307.994 C 61.217,307.98 61.291,307.969 61.365,307.962 C 61.438,307.952 61.515,307.945 61.592,307.941 C 61.632,307.939 61.671,307.939 61.71,307.935 L 61.766,307.935 C 61.907,307.935 62.038,307.942 62.16,307.952 L 62.184,307.953 C 62.232,307.958 62.278,307.963 62.323,307.969 C 62.395,307.977 62.459,307.987 62.522,307.999 C 62.561,308.005 62.6,308.014 62.637,308.021 C 62.697,308.034 62.752,308.049 62.804,308.061 C 62.843,308.071 62.881,308.082 62.918,308.094 C 62.961,308.106 63.001,308.121 63.041,308.135 L 63.08,308.147 C 63.1,308.154 63.125,308.164 63.155,308.175 C 63.196,308.191 63.245,308.21 63.301,308.235 C 63.335,308.249 63.371,308.265 63.409,308.282 C 63.439,308.297 63.475,308.316 63.511,308.33 C 63.524,308.338 63.54,308.346 63.555,308.352 L 63.555,309.219 C 63.545,309.212 63.533,309.205 63.524,309.199 L 63.465,309.164 C 63.405,309.127 63.348,309.094 63.291,309.061 C 63.229,309.029 63.166,308.997 63.104,308.967 C 62.999,308.917 62.895,308.875 62.797,308.84 C 62.607,308.772 62.435,308.73 62.282,308.702 C 62.264,308.699 62.246,308.695 62.229,308.693 C 62.186,308.687 62.146,308.681 62.106,308.677 C 62.047,308.671 61.99,308.668 61.941,308.665 C 61.907,308.664 61.878,308.662 61.849,308.662 C 61.788,308.662 61.724,308.664 61.659,308.669 C 61.584,308.675 61.509,308.683 61.43,308.695 C 61.305,308.717 61.179,308.749 61.057,308.793 C 61.038,308.799 61.021,308.807 61.002,308.815 C 60.991,308.818 60.979,308.824 60.966,308.829 C 60.947,308.838 60.928,308.846 60.907,308.855 C 60.864,308.875 60.822,308.897 60.781,308.92 C 60.761,308.932 60.742,308.944 60.72,308.956 C 60.701,308.969 60.679,308.983 60.659,308.999 C 60.635,309.014 60.609,309.032 60.586,309.052 C 60.561,309.071 60.538,309.091 60.517,309.107 L 60.489,309.133 L 60.474,309.146 L 60.466,309.154 L 60.455,309.164 C 60.416,309.202 60.381,309.242 60.347,309.281 C 60.331,309.303 60.313,309.326 60.295,309.347 C 60.28,309.368 60.266,309.389 60.252,309.412 C 60.239,309.432 60.226,309.452 60.215,309.473 C 60.196,309.503 60.18,309.533 60.164,309.564 C 60.153,309.589 60.141,309.616 60.131,309.641 C 60.111,309.684 60.096,309.729 60.082,309.771 C 60.072,309.802 60.063,309.836 60.053,309.867 C 60.033,309.956 60.021,310.039 60.014,310.11 C 60.01,310.137 60.01,310.163 60.007,310.186 C 60.007,310.219 60.007,310.249 60.007,310.273 L 60.007,310.328 C 60.007,310.377 60.014,310.44 60.023,310.511 C 60.029,310.555 60.038,310.601 60.05,310.65 C 60.058,310.683 60.066,310.715 60.076,310.749 C 60.087,310.78 60.097,310.81 60.111,310.844 C 60.118,310.865 60.126,310.886 60.137,310.907 C 60.149,310.936 60.164,310.965 60.178,310.994 C 60.19,311.018 60.203,311.041 60.216,311.062 C 60.244,311.111 60.277,311.16 60.313,311.209 C 60.326,311.227 60.34,311.244 60.353,311.261 C 60.372,311.283 60.391,311.306 60.411,311.328 C 60.423,311.338 60.433,311.35 60.443,311.361 C 60.602,311.519 60.781,311.638 60.964,311.722 C 60.994,311.734 61.023,311.747 61.052,311.758 C 61.082,311.77 61.109,311.78 61.14,311.791 C 61.171,311.802 61.203,311.811 61.236,311.82 C 61.266,311.829 61.298,311.837 61.328,311.844 C 61.358,311.851 61.39,311.857 61.419,311.862 C 61.452,311.868 61.485,311.873 61.519,311.878 C 61.552,311.882 61.585,311.886 61.619,311.887 C 61.682,311.893 61.743,311.896 61.803,311.896 C 61.825,311.896 61.844,311.896 61.865,311.895 C 61.91,311.895 61.951,311.893 61.995,311.891 C 62.025,311.887 62.054,311.887 62.083,311.884 C 62.136,311.878 62.19,311.873 62.239,311.865 C 62.283,311.858 62.327,311.851 62.367,311.844 C 62.429,311.83 62.486,311.817 62.538,311.802 C 62.57,311.795 62.6,311.786 62.628,311.777 C 62.669,311.764 62.705,311.753 62.734,311.744 C 62.781,311.727 62.809,311.718 62.809,311.718 C 62.85,311.703 62.893,311.684 62.934,311.67 C 62.99,311.646 63.041,311.624 63.092,311.6 C 63.134,311.581 63.172,311.561 63.211,311.545 C 63.241,311.529 63.271,311.513 63.297,311.5 C 63.345,311.475 63.385,311.453 63.417,311.435 L 63.507,311.387 L 63.507,312.238 C 63.507,312.238 63.452,312.258 63.362,312.294 C 63.321,312.309 63.273,312.326 63.217,312.345 C 63.188,312.357 63.156,312.368 63.122,312.38 C 63.095,312.388 63.068,312.398 63.039,312.406 C 63.006,312.417 62.974,312.43 62.939,312.44 C 62.914,312.446 62.889,312.455 62.861,312.463 L 62.839,312.469 C 62.814,312.476 62.787,312.482 62.764,312.49 C 62.731,312.497 62.699,312.507 62.669,312.515 C 62.648,312.519 62.627,312.523 62.606,312.529 C 62.572,312.537 62.54,312.544 62.504,312.551 C 62.469,312.558 62.435,312.566 62.399,312.571"
         style="fill:#000000;fill-rule:evenodd;stroke:none" />
      <g
         id="g3440"
         transform="translate(52.968994,309.9455)">
        <path
           id="path3442"
           d="M 0,0 L 0,-1.247 L 0.809,-1.247 C 0.809,-1.247 0.826,-1.245 0.85,-1.245 C 0.878,-1.244 0.917,-1.242 0.965,-1.238 C 1.051,-1.23 1.168,-1.214 1.281,-1.175 C 1.382,-1.142 1.48,-1.091 1.556,-1.015 C 1.585,-0.985 1.61,-0.955 1.63,-0.924 C 1.692,-0.823 1.708,-0.723 1.711,-0.666 C 1.714,-0.639 1.714,-0.626 1.714,-0.626 L 1.714,-0.595 C 1.714,-0.571 1.71,-0.525 1.698,-0.474 C 1.682,-0.415 1.654,-0.347 1.603,-0.283 C 1.592,-0.272 1.582,-0.26 1.571,-0.25 C 1.549,-0.227 1.524,-0.205 1.498,-0.185 C 1.453,-0.154 1.403,-0.125 1.348,-0.102 C 1.275,-0.069 1.194,-0.046 1.102,-0.029 C 1.06,-0.021 1.009,-0.013 0.961,-0.01 C 0.929,-0.005 0.9,-0.004 0.867,-0.001 C 0.839,0 0.81,0 0.781,0 L 0,0 z "
           style="fill:#000000;fill-rule:evenodd;stroke:none" />
      </g>
      <g
         id="g3444"
         transform="translate(52.968994,311.84309)">
        <path
           id="path3446"
           d="M 0,0 L 0,-1.182 L 0.391,-1.182 C 0.391,-1.182 0.417,-1.182 0.451,-1.182 C 0.48,-1.181 0.511,-1.18 0.54,-1.177 C 0.621,-1.171 0.733,-1.16 0.843,-1.13 C 0.867,-1.123 0.889,-1.115 0.908,-1.108 C 0.996,-1.077 1.079,-1.033 1.147,-0.968 C 1.198,-0.917 1.232,-0.86 1.254,-0.804 C 1.282,-0.737 1.292,-0.673 1.296,-0.627 C 1.299,-0.585 1.299,-0.56 1.299,-0.56 C 1.299,-0.56 1.299,-0.541 1.298,-0.509 C 1.296,-0.458 1.286,-0.374 1.244,-0.294 C 1.225,-0.255 1.198,-0.218 1.161,-0.183 C 1.117,-0.139 1.065,-0.105 1.007,-0.079 C 0.896,-0.03 0.769,-0.011 0.664,-0.005 C 0.616,-0.002 0.575,0 0.539,0 L 0,0 z "
           style="fill:#000000;fill-rule:evenodd;stroke:none" />
      </g>
      <path
         id="path3448"
         d="M 50.381,313.455 L 57.124,313.455 L 57.124,307.11 L 50.381,307.11 L 50.381,313.455 z M 52.149,312.566 L 52.149,307.994 L 53.87,307.994 C 53.87,307.994 54.71,307.973 55.172,308.435 C 55.549,308.812 55.523,309.248 55.523,309.248 C 55.523,309.248 55.549,309.703 55.2,310.054 C 54.902,310.35 54.523,310.431 54.523,310.431 C 54.523,310.431 54.694,310.509 54.827,310.642 C 54.888,310.703 55.108,310.902 55.108,311.384 C 55.108,311.868 54.785,312.147 54.785,312.147 C 54.785,312.147 54.43,312.566 53.634,312.566 L 52.149,312.566 z "
         style="fill:#000000;fill-rule:evenodd;stroke:none" />
      <g
         id="g3450"
         transform="translate(45.198502,309.9455)">
        <path
           id="path3452"
           d="M 0,0 L 0,-1.247 L 0.811,-1.247 C 0.811,-1.247 0.826,-1.245 0.852,-1.245 C 0.879,-1.244 0.919,-1.242 0.966,-1.238 C 1.054,-1.23 1.169,-1.214 1.282,-1.175 C 1.383,-1.142 1.481,-1.091 1.558,-1.015 C 1.587,-0.985 1.61,-0.955 1.631,-0.924 C 1.694,-0.823 1.709,-0.723 1.712,-0.666 C 1.716,-0.639 1.716,-0.626 1.716,-0.626 L 1.716,-0.595 C 1.712,-0.571 1.71,-0.525 1.698,-0.474 C 1.683,-0.415 1.654,-0.347 1.603,-0.283 C 1.595,-0.272 1.584,-0.26 1.573,-0.25 C 1.549,-0.227 1.527,-0.205 1.501,-0.185 C 1.455,-0.154 1.404,-0.125 1.35,-0.102 C 1.276,-0.069 1.195,-0.046 1.105,-0.029 C 1.061,-0.021 1.011,-0.013 0.963,-0.01 C 0.932,-0.005 0.901,-0.004 0.869,-0.001 C 0.842,0 0.812,0 0.783,0 L 0,0 z "
           style="fill:#000000;fill-rule:evenodd;stroke:none" />
      </g>
      <g
         id="g3454"
         transform="translate(45.198502,311.84309)">
        <path
           id="path3456"
           d="M 0,0 L 0,-1.182 L 0.393,-1.182 C 0.393,-1.182 0.419,-1.182 0.452,-1.182 C 0.48,-1.181 0.513,-1.18 0.541,-1.177 C 0.622,-1.171 0.735,-1.16 0.845,-1.13 C 0.868,-1.123 0.888,-1.115 0.911,-1.108 C 0.997,-1.077 1.082,-1.033 1.147,-0.968 C 1.198,-0.917 1.231,-0.86 1.256,-0.804 C 1.283,-0.737 1.293,-0.673 1.296,-0.627 C 1.301,-0.585 1.301,-0.56 1.301,-0.56 L 1.301,-0.509 C 1.296,-0.458 1.286,-0.374 1.246,-0.294 C 1.226,-0.255 1.198,-0.218 1.164,-0.183 C 1.118,-0.139 1.065,-0.105 1.007,-0.079 C 0.896,-0.03 0.771,-0.011 0.663,-0.005 C 0.618,-0.002 0.576,0 0.541,0 L 0,0 z "
           style="fill:#000000;fill-rule:evenodd;stroke:none" />
      </g>
      <path
         id="path3458"
         d="M 42.611,313.455 L 49.354,313.455 L 49.354,307.11 L 42.611,307.11 L 42.611,313.455 z M 44.38,312.566 L 44.38,307.994 L 46.101,307.994 C 46.101,307.994 46.94,307.973 47.403,308.435 C 47.779,308.812 47.753,309.248 47.753,309.248 C 47.753,309.248 47.779,309.703 47.43,310.054 C 47.132,310.35 46.753,310.431 46.753,310.431 C 46.753,310.431 46.925,310.509 47.056,310.642 C 47.118,310.703 47.338,310.902 47.338,311.384 C 47.338,311.868 47.015,312.147 47.015,312.147 C 47.015,312.147 46.662,312.566 45.865,312.566 L 44.38,312.566 z "
         style="fill:#000000;fill-rule:evenodd;stroke:none" />
      <g
         id="g3460"
         transform="translate(43.363693,304.89)">
        <path
           id="path3462"
           d="M 0,0 L 0.486,0 C 1.215,0 1.508,-0.299 1.516,-0.792 C 1.523,-1.231 1.293,-1.646 0.486,-1.646 L 0,-1.646 L 0,0 z M -0.753,0.647 L -0.753,-4.598 L 0,-4.598 L 0,-2.322 L 0.315,-2.322 C 0.702,-2.322 1.015,-2.446 1.709,-3.523 L 2.401,-4.598 L 3.3,-4.598 C 2.938,-4.101 2.808,-3.923 2.584,-3.56 C 2.184,-2.908 1.892,-2.423 1.415,-2.108 C 1.977,-1.883 2.293,-1.431 2.293,-0.822 C 2.293,0.085 1.631,0.647 0.57,0.647 L -0.753,0.647 z "
           style="fill:#000000;fill-rule:evenodd;stroke:none" />
      </g>
      <g
         id="g3464"
         transform="translate(49.128601,304.4126)">
        <path
           id="path3466"
           d="M 0,0 L 0.846,-1.898 L -0.786,-1.898 L 0,0 z M 0.276,1.154 L -0.255,1.154 L -2.508,-4.121 L -1.74,-4.121 L -1.077,-2.577 L 1.153,-2.577 L 1.853,-4.121 L 2.622,-4.121 L 0.276,1.154 z "
           style="fill:#000000;fill-rule:evenodd;stroke:none" />
      </g>
      <g
         id="g3468"
         transform="translate(53.130997,304.8596)">
        <path
           id="path3470"
           d="M 0,0 L 1.159,0 C 2.63,0 3.299,-0.892 3.299,-1.946 C 3.299,-2.592 2.906,-3.892 1.2,-3.892 L 0,-3.892 L 0,0 z M -0.755,-4.568 L 1.291,-4.568 C 3.022,-4.568 4.075,-3.292 4.075,-1.946 C 4.075,-0.708 3.221,0.678 1.284,0.678 L -0.755,0.678 L -0.755,-4.568 z "
           style="fill:#000000;fill-rule:evenodd;stroke:none" />
      </g>
      <path
         id="path3472"
         d="M 58.074,305.537 L 58.827,305.537 L 58.827,300.291 L 58.074,300.291 L 58.074,305.537 z "
         style="fill:#000000;fill-rule:evenodd;stroke:none" />
      <g
         id="g3474"
         transform="translate(60.474106,302.9133)">
        <path
           id="path3476"
           d="M 0,0 C 0,1.154 0.87,1.999 2.039,1.999 C 3.216,1.999 4.085,1.154 4.085,0 C 4.085,-1.146 3.216,-2 2.039,-2 C 0.87,-2 0,-1.146 0,0 M -0.777,0 C -0.777,-1.423 0.309,-2.691 2.023,-2.691 C 3.8,-2.691 4.861,-1.415 4.861,0 C 4.861,1.461 3.77,2.691 2.039,2.691 C 0.338,2.691 -0.777,1.453 -0.777,0"
           style="fill:#000000;fill-rule:evenodd;stroke:none" />
      </g>
      <g
         id="g3478"
         transform="translate(87.438507,301.75191)">
        <path
           id="path3480"
           d="M 0,0 C 4.21,0 7.152,-3.21 7.152,-7.805 C 7.152,-10.028 6.28,-12.105 4.699,-13.653 C 3.086,-15.231 0.948,-16.074 -1.306,-16.025 C -5.109,-16.025 -8.966,-14.134 -9.655,-9.948 L -3.599,-9.948 C -3.127,-10.653 -2.351,-11.069 -1.396,-11.069 C 0.456,-11.069 1.454,-9.387 1.454,-7.805 C 1.454,-6.239 0.572,-4.659 -1.396,-4.659 C -2.573,-4.659 -3.225,-5.002 -3.974,-6.02 L -4.152,-6.261 L -9.457,-6.261 L -6.73,7.289 L 7.436,7.289 L 6.455,2.349 L -2.475,2.349 C -2.475,2.349 -2.897,0.415 -3.091,-0.689 C -2.203,-0.223 -1.191,0 0,0 M -0.964,12.728 C -10.145,12.728 -17.589,5.281 -17.589,-3.905 C -17.589,-13.092 -10.145,-20.539 -0.964,-20.539 C 8.218,-20.539 15.66,-13.092 15.66,-3.905 C 15.66,5.281 8.218,12.728 -0.964,12.728"
           style="fill:#5b8b27;fill-rule:nonzero;stroke:none" />
      </g>
      <g
         id="g3482"
         transform="translate(110.0386,297.8091)">
        <path
           id="path3484"
           d="M 0,0 L 1.116,8.507 L -0.986,8.507 L -2.1,0 L 0,0 z "
           style="fill:#5b8b27;fill-rule:nonzero;stroke:none" />
      </g>
      <g
         id="g3486"
         transform="translate(111.4987,309.0159)">
        <path
           id="path3488"
           d="M 0,0 L -2.102,0 L -2.326,-1.52 L -0.224,-1.52 L 0,0 z "
           style="fill:#5b8b27;fill-rule:nonzero;stroke:none" />
      </g>
      <g
         id="g3490"
         transform="translate(115.5235,297.8091)">
        <path
           id="path3492"
           d="M 0,0 L 4.235,8.507 L 1.984,8.507 C 1.984,8.507 0.039,4.337 -0.415,3.362 C -0.627,4.398 -1.466,8.507 -1.466,8.507 L -3.677,8.507 L -1.67,0 L 0,0 z "
           style="fill:#5b8b27;fill-rule:nonzero;stroke:none" />
      </g>
      <g
         id="g3494"
         transform="translate(124.0302,303.0239)">
        <path
           id="path3496"
           d="M 0,0 L -2.858,0 C -2.629,0.861 -2.024,1.387 -1.22,1.387 C -0.838,1.387 -0.526,1.266 -0.318,1.038 C -0.107,0.807 0.003,0.463 0.003,0.036 C 0.003,0.025 0,0.012 0,0 M 1.381,2.366 C 0.803,3.025 -0.05,3.388 -1.02,3.388 C -2.721,3.388 -4.69,2.248 -5.109,-0.955 C -5.304,-2.439 -5.071,-3.57 -4.414,-4.316 C -3.844,-4.967 -2.955,-5.31 -1.845,-5.31 C -0.615,-5.31 0.505,-4.837 1.395,-3.941 L 1.567,-3.767 L 0.187,-2.445 L 0.021,-2.595 C -0.463,-3.035 -1.112,-3.309 -1.676,-3.309 C -2.175,-3.309 -2.57,-3.161 -2.815,-2.882 C -3.015,-2.654 -3.118,-2.332 -3.118,-1.939 C -3.118,-1.898 -3.11,-1.853 -3.108,-1.811 L 1.881,-1.811 L 2.084,-0.272 C 2.108,-0.089 2.12,0.091 2.12,0.267 C 2.12,1.083 1.864,1.815 1.381,2.366"
           style="fill:#5b8b27;fill-rule:nonzero;stroke:none" />
      </g>
      <g
         id="g3498"
         transform="translate(108.0293,309.0159)">
        <path
           id="path3500"
           d="M 0,0 L -2.1,0 L -3.576,-11.198 L -1.475,-11.198 L 0,0 z "
           style="fill:#5b8b27;fill-rule:nonzero;stroke:none" />
      </g>
      <g
         id="g3502"
         transform="translate(105.13091,293.0231)">
        <path
           id="path3504"
           d="M 0,0 C -0.464,0 -0.783,0.137 -1.064,0.458 L -1.132,0.537 L -1.913,-0.135 L -1.839,-0.213 C -1.397,-0.696 -0.834,-0.941 -0.169,-0.941 C 0.84,-0.941 1.595,-0.427 1.708,0.336 C 1.763,0.705 1.698,1.015 1.521,1.235 C 1.34,1.459 1.053,1.585 0.665,1.611 L 0.033,1.658 C -0.174,1.675 -0.261,1.73 -0.297,1.775 C -0.324,1.809 -0.333,1.85 -0.326,1.901 C -0.311,1.995 -0.27,2.276 0.301,2.276 C 0.642,2.276 0.916,2.175 1.217,1.941 L 1.29,1.883 L 1.994,2.588 L 1.917,2.662 C 1.523,3.04 1.045,3.216 0.409,3.216 C -0.519,3.216 -1.193,2.715 -1.308,1.941 C -1.355,1.621 -1.292,1.34 -1.125,1.13 C -0.941,0.896 -0.644,0.757 -0.265,0.725 L 0.409,0.664 C 0.564,0.651 0.66,0.618 0.704,0.564 C 0.731,0.527 0.74,0.475 0.729,0.404 C 0.693,0.151 0.42,0 0,0"
           style="fill:#5b8b27;fill-rule:nonzero;stroke:none" />
      </g>
      <g
         id="g3506"
         transform="translate(109.4772,295.2533)">
        <path
           id="path3508"
           d="M 0,0 C 0.199,0 0.336,-0.047 0.42,-0.143 C 0.581,-0.331 0.541,-0.71 0.485,-1.081 C 0.393,-1.706 0.272,-2.184 -0.357,-2.184 C -0.546,-2.184 -0.678,-2.138 -0.76,-2.042 C -0.928,-1.848 -0.887,-1.46 -0.836,-1.112 C -0.748,-0.525 -0.618,0 0,0 M -1.517,0.941 L -2.234,-3.882 L -1.247,-3.882 C -1.182,-3.455 -1.113,-2.986 -1.089,-2.823 C -0.829,-3.054 -0.554,-3.171 -0.234,-3.171 C 0.342,-3.171 0.728,-2.879 0.951,-2.634 C 1.233,-2.33 1.33,-2.045 1.469,-1.112 C 1.609,-0.166 1.596,0.122 1.399,0.434 C 1.246,0.686 0.937,0.986 0.35,0.986 C 0.035,0.986 -0.289,0.873 -0.569,0.678 C -0.56,0.743 -0.53,0.941 -0.53,0.941 L -1.517,0.941 z "
           style="fill:#5b8b27;fill-rule:nonzero;stroke:none" />
      </g>
      <g
         id="g3510"
         transform="translate(112.5706,294.1497)">
        <path
           id="path3512"
           d="M 0,0 C 0.084,0.559 0.148,0.679 0.302,0.86 C 0.428,1.005 0.664,1.104 0.887,1.104 C 1.1,1.104 1.301,1.01 1.377,0.876 C 1.435,0.774 1.467,0.69 1.467,0.521 C 1.467,0.405 1.452,0.251 1.418,0.023 C 1.334,-0.536 1.27,-0.657 1.117,-0.837 C 0.991,-0.982 0.756,-1.081 0.532,-1.081 C 0.319,-1.081 0.117,-0.987 0.041,-0.853 C -0.054,-0.68 -0.084,-0.562 0,0 M 0.416,-2.067 C 0.926,-2.067 1.369,-1.891 1.733,-1.544 C 2.121,-1.176 2.283,-0.801 2.402,0 C 2.521,0.8 2.469,1.179 2.183,1.553 C 1.915,1.91 1.517,2.089 1.002,2.089 C 0.494,2.089 0.05,1.913 -0.315,1.567 C -0.703,1.198 -0.866,0.825 -0.983,0.03 C -1.023,-0.234 -1.044,-0.452 -1.044,-0.64 C -1.044,-1.025 -0.957,-1.278 -0.765,-1.531 C -0.497,-1.887 -0.099,-2.067 0.416,-2.067"
           style="fill:#5b8b27;fill-rule:nonzero;stroke:none" />
      </g>
      <g
         id="g3514"
         transform="translate(117.91721,296.239)">
        <path
           id="path3516"
           d="M 0,0 C -0.354,0 -0.674,-0.109 -0.944,-0.313 C -0.934,-0.245 -0.905,-0.045 -0.905,-0.045 L -1.892,-0.045 L -2.496,-4.111 L -1.507,-4.111 L -1.151,-1.701 C -1.072,-1.174 -0.687,-0.986 -0.381,-0.986 C -0.214,-0.986 -0.118,-1.025 0.032,-1.151 L 0.107,-1.214 L 0.914,-0.395 L 0.831,-0.323 C 0.582,-0.105 0.312,0 0,0"
           style="fill:#5b8b27;fill-rule:nonzero;stroke:none" />
      </g>
      <g
         id="g3518"
         transform="translate(123.1716,295.2991)">
        <path
           id="path3520"
           d="M 0,0 C 0.342,0 0.615,-0.101 0.917,-0.335 L 0.99,-0.393 L 1.694,0.312 L 1.617,0.386 C 1.222,0.764 0.744,0.94 0.108,0.94 C -0.82,0.94 -1.494,0.439 -1.609,-0.335 C -1.656,-0.655 -1.592,-0.936 -1.426,-1.146 C -1.242,-1.38 -0.944,-1.519 -0.566,-1.551 L 0.108,-1.611 C 0.263,-1.625 0.359,-1.658 0.403,-1.712 C 0.431,-1.748 0.44,-1.801 0.43,-1.872 C 0.392,-2.125 0.119,-2.276 -0.301,-2.276 C -0.765,-2.276 -1.084,-2.139 -1.365,-1.818 L -1.433,-1.739 L -2.213,-2.411 L -2.14,-2.489 C -1.698,-2.972 -1.136,-3.217 -0.469,-3.217 C 0.54,-3.217 1.294,-2.703 1.407,-1.94 C 1.462,-1.571 1.397,-1.261 1.22,-1.04 C 1.04,-0.817 0.752,-0.691 0.364,-0.664 L -0.267,-0.618 C -0.475,-0.601 -0.561,-0.546 -0.598,-0.501 C -0.624,-0.467 -0.634,-0.425 -0.626,-0.375 C -0.614,-0.281 -0.571,0 0,0"
           style="fill:#5b8b27;fill-rule:nonzero;stroke:none" />
      </g>
      <g
         id="g3522"
         transform="translate(104.42281,289.9877)">
        <path
           id="path3524"
           d="M 0,0 C 0.194,0 0.35,-0.061 0.455,-0.176 C 0.555,-0.29 0.608,-0.454 0.608,-0.658 C 0.608,-0.68 0.605,-0.704 0.604,-0.726 L -0.833,-0.726 C -0.718,-0.28 -0.411,0 0,0 M 1.267,-2.527 L 0.646,-1.922 L 0.585,-1.978 C 0.341,-2.196 0.016,-2.331 -0.264,-2.331 C -0.514,-2.331 -0.71,-2.257 -0.832,-2.116 C -0.928,-2.004 -0.977,-1.848 -0.977,-1.66 C -0.977,-1.626 -0.971,-1.587 -0.968,-1.55 L 1.453,-1.55 L 1.558,-0.829 C 1.574,-0.73 1.581,-0.633 1.581,-0.539 C 1.581,-0.161 1.466,0.176 1.246,0.432 C 0.975,0.745 0.572,0.917 0.111,0.917 C -0.702,0.917 -1.653,0.37 -1.881,-1.164 C -1.985,-1.876 -1.883,-2.419 -1.576,-2.775 C -1.31,-3.084 -0.888,-3.247 -0.357,-3.247 C 0.229,-3.247 0.77,-3.021 1.203,-2.591 L 1.267,-2.527 z "
           style="fill:#5b8b27;fill-rule:nonzero;stroke:none" />
      </g>
      <g
         id="g3526"
         transform="translate(108.786,290.85851)">
        <path
           id="path3528"
           d="M 0,0 C 0,0 -0.753,-0.986 -0.9,-1.178 C -0.999,-0.964 -1.451,0 -1.451,0 L -2.591,0 C -2.591,0 -1.61,-1.884 -1.558,-1.983 C -1.63,-2.07 -3.263,-4.072 -3.263,-4.072 L -2.095,-4.072 C -2.095,-4.072 -1.282,-3.038 -1.135,-2.851 C -1.033,-3.059 -0.536,-4.072 -0.536,-4.072 L 0.603,-4.072 C 0.603,-4.072 -0.419,-2.104 -0.471,-2.005 C -0.399,-1.918 1.169,0 1.169,0 L 0,0 z "
           style="fill:#5b8b27;fill-rule:nonzero;stroke:none" />
      </g>
      <g
         id="g3530"
         transform="translate(111.0549,287.7347)">
        <path
           id="path3532"
           d="M 0,0 C -0.012,0.015 -0.019,0.043 -0.019,0.082 C -0.019,0.104 -0.017,0.129 -0.013,0.158 C -0.013,0.158 0.255,1.961 0.312,2.346 L 0.88,2.346 L 0.996,3.124 L 0.427,3.124 C 0.438,3.198 0.471,3.43 0.508,3.671 L -0.456,3.671 C -0.492,3.422 -0.527,3.182 -0.537,3.124 L -0.929,3.124 L -1.043,2.346 L -0.651,2.346 C -0.679,2.16 -0.984,0.114 -0.984,0.114 C -0.993,0.045 -0.998,-0.022 -0.998,-0.086 C -0.998,-0.318 -0.932,-0.513 -0.804,-0.662 C -0.643,-0.849 -0.398,-0.948 -0.093,-0.948 L 0.391,-0.948 L 0.526,-0.033 L 0.132,-0.033 C 0.085,-0.033 0.024,-0.027 0,0"
           style="fill:#5b8b27;fill-rule:nonzero;stroke:none" />
      </g>
      <g
         id="g3534"
         transform="translate(117.0406,288.2562)">
        <path
           id="path3536"
           d="M 0,0 C -0.079,-0.541 -0.251,-0.599 -0.887,-0.599 C -1.138,-0.599 -1.316,-0.546 -1.404,-0.444 C -1.447,-0.395 -1.467,-0.336 -1.467,-0.267 C -1.467,-0.249 -1.466,-0.23 -1.463,-0.211 C -1.415,0.114 -1.078,0.182 -0.806,0.182 L 0.028,0.182 C 0.015,0.098 0,0 0,0 M -0.368,2.648 C -1.01,2.648 -1.476,2.457 -1.831,2.049 L -1.889,1.98 L -1.205,1.393 L -1.149,1.467 C -0.996,1.666 -0.818,1.731 -0.437,1.731 C -0.115,1.731 0.072,1.688 0.153,1.594 C 0.177,1.567 0.206,1.521 0.206,1.425 C 0.206,1.4 0.203,1.37 0.197,1.335 C 0.197,1.335 0.165,1.106 0.15,1.005 L -0.856,1.005 C -1.785,1.005 -2.291,0.389 -2.382,-0.223 C -2.393,-0.292 -2.398,-0.36 -2.398,-0.427 C -2.398,-0.691 -2.315,-0.924 -2.155,-1.11 C -1.927,-1.375 -1.561,-1.516 -1.096,-1.516 C -0.687,-1.516 -0.4,-1.441 -0.189,-1.274 C -0.194,-1.311 -0.217,-1.47 -0.217,-1.47 L 0.746,-1.47 L 1.151,1.262 C 1.212,1.673 1.142,1.997 0.945,2.226 C 0.7,2.51 0.27,2.648 -0.368,2.648"
           style="fill:#5b8b27;fill-rule:nonzero;stroke:none" />
      </g>
      <g
         id="g3538"
         transform="translate(114.43089,290.9045)">
        <path
           id="path3540"
           d="M 0,0 C -0.369,0 -0.7,-0.121 -0.975,-0.342 C -0.961,-0.245 -0.931,-0.046 -0.931,-0.046 L -1.896,-0.046 L -2.499,-4.118 L -1.535,-4.118 L -1.178,-1.699 C -1.096,-1.156 -0.7,-0.961 -0.384,-0.961 C -0.246,-0.961 -0.15,-0.992 -0.038,-1.072 L 0.764,-0.27 C 0.533,-0.09 0.284,0 0,0"
           style="fill:#5b8b27;fill-rule:nonzero;stroke:none" />
      </g>
      <g
         id="g3542"
         transform="translate(120.0735,293.07651)">
        <path
           id="path3544"
           d="M 0,0 C -0.013,0.016 -0.021,0.043 -0.021,0.082 C -0.021,0.104 -0.018,0.128 -0.013,0.157 C -0.013,0.157 0.253,1.961 0.311,2.346 L 0.879,2.346 L 0.994,3.124 L 0.427,3.124 C 0.437,3.198 0.472,3.43 0.508,3.671 L -0.456,3.671 C -0.494,3.422 -0.529,3.182 -0.538,3.124 L -0.93,3.124 L -1.044,2.346 L -0.653,2.346 C -0.68,2.16 -0.985,0.115 -0.985,0.115 C -0.994,0.045 -0.999,-0.022 -0.999,-0.086 C -0.999,-0.318 -0.934,-0.513 -0.805,-0.662 C -0.644,-0.849 -0.398,-0.948 -0.095,-0.948 L 0.39,-0.948 L 0.525,-0.033 L 0.131,-0.033 C 0.084,-0.033 0.023,-0.027 0,0"
           style="fill:#5b8b27;fill-rule:nonzero;stroke:none" />
      </g>
    </g>
    <g
       id="g3612"
       transform="matrix(1,0,0,-1,119.88179,344.28221)" />
  </g>
</svg>
