<?xml version="1.0" encoding="UTF-8" standalone="no"?>
<!-- Created with Inkscape (http://www.inkscape.org/) -->
<svg
   xmlns:dc="http://purl.org/dc/elements/1.1/"
   xmlns:cc="http://web.resource.org/cc/"
   xmlns:rdf="http://www.w3.org/1999/02/22-rdf-syntax-ns#"
   xmlns:svg="http://www.w3.org/2000/svg"
   xmlns="http://www.w3.org/2000/svg"
   xmlns:xlink="http://www.w3.org/1999/xlink"
   xmlns:sodipodi="http://sodipodi.sourceforge.net/DTD/sodipodi-0.dtd"
   xmlns:inkscape="http://www.inkscape.org/namespaces/inkscape"
   width="200"
   height="110"
   id="svg2"
   sodipodi:version="0.32"
   inkscape:version="0.45.1"
   version="1.0"
   inkscape:output_extension="org.inkscape.output.svg.inkscape">
  <g
     inkscape:label="Layer 1"
     inkscape:groupmode="layer"
     id="layer1"
     transform="translate(-226.64509,-428.96261)">
    <g
       id="g2822"
       transform="matrix(1,0,0,-1,207.74489,417.97292)" />
    <g
       id="g3370"
       clip-path="url(#id198)"
       transform="matrix(3.3064623,0,0,-3.3064623,-266.95352,1597.5774)">
      <g
         id="g3372"
         transform="translate(193.14661,353.433)">
        <path
           id="path3374"
           d="M 0,0 C -9.181,0 -16.625,-7.447 -16.625,-16.633 C -16.625,-25.82 -9.181,-33.267 0,-33.267 C 9.182,-33.267 16.624,-25.82 16.624,-16.633 C 16.624,-7.447 9.182,0 0,0"
           style="fill:#ffffff;fill-rule:nonzero;stroke:none" />
      </g>
      <path
         id="path3376"
         d="M 164.822,352.407 L 171.565,352.407 L 171.565,346.062 L 164.822,346.062 L 164.822,352.407 z M 169.071,351.524 C 169.042,351.53 169.01,351.534 168.98,351.54 L 168.944,351.544 C 168.892,351.552 168.841,351.558 168.787,351.562 C 168.751,351.567 168.715,351.568 168.68,351.57 C 168.615,351.575 168.553,351.577 168.493,351.577 C 168.465,351.577 168.448,351.576 168.421,351.576 C 168.369,351.575 168.32,351.571 168.272,351.568 C 168.244,351.567 168.216,351.565 168.19,351.562 C 168.149,351.559 168.11,351.555 168.07,351.549 L 168.038,351.546 L 168,351.54 L 167.956,351.532 C 167.937,351.53 167.918,351.526 167.899,351.522 C 167.871,351.519 167.845,351.512 167.82,351.507 C 167.66,351.472 167.511,351.428 167.376,351.376 C 167.305,351.347 167.237,351.318 167.174,351.286 C 167.119,351.26 167.069,351.232 167.018,351.204 C 166.971,351.176 166.925,351.148 166.88,351.119 C 166.855,351.1 166.83,351.086 166.804,351.066 C 166.783,351.051 166.763,351.037 166.743,351.022 C 166.7,350.989 166.658,350.954 166.619,350.92 C 166.584,350.888 166.549,350.856 166.516,350.824 C 166.488,350.797 166.458,350.768 166.433,350.736 C 166.405,350.706 166.378,350.675 166.352,350.643 C 166.323,350.609 166.299,350.574 166.272,350.538 C 166.25,350.51 166.233,350.483 166.214,350.454 C 166.201,350.435 166.19,350.416 166.179,350.396 C 166.107,350.283 166.046,350.159 165.994,350.029 C 165.932,349.864 165.886,349.687 165.861,349.501 C 165.855,349.442 165.849,349.382 165.844,349.32 C 165.841,349.273 165.84,349.225 165.84,349.178 C 165.84,349.141 165.84,349.106 165.841,349.07 C 165.844,349.034 165.849,348.998 165.853,348.962 L 165.855,348.936 C 165.86,348.892 165.867,348.85 165.875,348.809 C 165.879,348.792 165.882,348.777 165.885,348.76 C 165.892,348.726 165.901,348.691 165.908,348.657 C 165.92,348.614 165.933,348.571 165.948,348.529 C 165.965,348.477 165.984,348.427 166.004,348.378 C 166.037,348.301 166.073,348.227 166.11,348.156 C 166.133,348.115 166.156,348.075 166.18,348.035 C 166.199,348.005 166.219,347.976 166.238,347.947 C 166.264,347.908 166.292,347.872 166.319,347.837 C 166.347,347.8 166.378,347.767 166.408,347.733 C 166.442,347.692 166.478,347.653 166.513,347.619 L 166.531,347.601 C 166.562,347.573 166.592,347.541 166.628,347.51 C 166.653,347.491 166.679,347.468 166.706,347.447 C 166.732,347.427 166.759,347.405 166.787,347.385 C 166.823,347.359 166.856,347.336 166.894,347.311 C 166.937,347.288 166.979,347.26 167.023,347.235 C 167.112,347.185 167.21,347.136 167.319,347.093 C 167.359,347.076 167.401,347.062 167.445,347.048 C 167.487,347.032 167.531,347.019 167.576,347.005 C 167.655,346.985 167.737,346.964 167.821,346.947 C 167.89,346.933 167.964,346.922 168.038,346.915 C 168.11,346.905 168.187,346.898 168.264,346.894 C 168.305,346.891 168.344,346.891 168.382,346.888 L 168.438,346.888 C 168.58,346.888 168.711,346.894 168.832,346.905 L 168.856,346.906 C 168.905,346.911 168.95,346.916 168.996,346.922 C 169.067,346.93 169.131,346.94 169.194,346.952 C 169.234,346.958 169.272,346.967 169.31,346.974 C 169.369,346.987 169.424,347.001 169.476,347.014 C 169.515,347.024 169.553,347.035 169.59,347.047 C 169.633,347.059 169.674,347.073 169.713,347.088 L 169.752,347.1 C 169.772,347.107 169.798,347.117 169.827,347.128 C 169.869,347.144 169.917,347.163 169.973,347.188 C 170.007,347.202 170.043,347.218 170.081,347.235 C 170.111,347.25 170.148,347.268 170.184,347.283 C 170.196,347.291 170.212,347.299 170.228,347.305 L 170.228,348.172 C 170.217,348.165 170.206,348.157 170.196,348.152 L 170.137,348.117 C 170.077,348.08 170.02,348.047 169.963,348.014 C 169.901,347.982 169.838,347.95 169.777,347.92 C 169.671,347.869 169.568,347.828 169.469,347.792 C 169.28,347.725 169.107,347.683 168.954,347.655 C 168.936,347.652 168.918,347.648 168.901,347.646 C 168.858,347.64 168.818,347.634 168.779,347.63 C 168.719,347.624 168.662,347.62 168.614,347.618 C 168.58,347.617 168.551,347.615 168.521,347.615 C 168.46,347.615 168.396,347.617 168.331,347.622 C 168.256,347.627 168.181,347.636 168.102,347.648 C 167.977,347.67 167.851,347.702 167.73,347.746 C 167.71,347.752 167.693,347.76 167.675,347.768 C 167.663,347.771 167.651,347.776 167.638,347.782 C 167.619,347.79 167.6,347.799 167.579,347.807 C 167.536,347.828 167.494,347.849 167.453,347.873 C 167.434,347.885 167.414,347.897 167.392,347.909 C 167.373,347.922 167.352,347.936 167.331,347.951 C 167.308,347.967 167.281,347.985 167.259,348.004 C 167.234,348.024 167.21,348.043 167.189,348.06 L 167.161,348.086 L 167.146,348.099 L 167.138,348.107 L 167.127,348.117 C 167.088,348.155 167.053,348.195 167.019,348.234 C 167.003,348.255 166.985,348.279 166.968,348.3 C 166.953,348.321 166.939,348.342 166.925,348.365 C 166.911,348.384 166.898,348.405 166.887,348.426 C 166.869,348.456 166.852,348.486 166.836,348.517 C 166.825,348.542 166.813,348.569 166.803,348.594 C 166.783,348.637 166.768,348.681 166.755,348.724 C 166.744,348.754 166.735,348.789 166.726,348.82 C 166.705,348.909 166.694,348.992 166.686,349.063 C 166.682,349.09 166.682,349.115 166.68,349.139 C 166.679,349.172 166.679,349.202 166.679,349.226 L 166.679,349.28 C 166.68,349.33 166.686,349.393 166.695,349.464 C 166.701,349.508 166.711,349.554 166.722,349.603 C 166.73,349.636 166.738,349.667 166.749,349.702 C 166.759,349.733 166.77,349.763 166.783,349.797 C 166.79,349.818 166.798,349.838 166.809,349.86 C 166.821,349.889 166.836,349.918 166.851,349.947 C 166.862,349.971 166.875,349.994 166.888,350.015 C 166.916,350.064 166.949,350.113 166.985,350.162 C 166.998,350.18 167.012,350.197 167.025,350.214 C 167.044,350.236 167.064,350.259 167.083,350.281 C 167.095,350.291 167.105,350.303 167.116,350.314 C 167.275,350.472 167.453,350.591 167.636,350.674 C 167.666,350.687 167.695,350.7 167.724,350.711 C 167.754,350.722 167.782,350.733 167.812,350.744 C 167.843,350.755 167.875,350.764 167.908,350.773 C 167.938,350.782 167.97,350.789 168,350.797 C 168.03,350.804 168.062,350.809 168.091,350.815 C 168.124,350.821 168.157,350.826 168.191,350.831 C 168.224,350.835 168.257,350.838 168.291,350.84 C 168.354,350.846 168.415,350.849 168.475,350.849 C 168.497,350.849 168.517,350.849 168.537,350.848 C 168.582,350.847 168.624,350.846 168.667,350.844 C 168.698,350.84 168.727,350.84 168.756,350.837 C 168.808,350.831 168.862,350.826 168.912,350.818 C 168.956,350.811 169,350.804 169.039,350.797 C 169.101,350.783 169.158,350.769 169.21,350.755 C 169.242,350.748 169.272,350.738 169.3,350.73 C 169.341,350.716 169.378,350.706 169.406,350.697 C 169.453,350.68 169.481,350.671 169.481,350.671 C 169.523,350.655 169.566,350.637 169.606,350.622 C 169.662,350.599 169.713,350.577 169.764,350.553 C 169.806,350.534 169.845,350.514 169.883,350.498 C 169.914,350.482 169.943,350.466 169.97,350.453 C 170.017,350.428 170.057,350.406 170.09,350.388 L 170.179,350.339 L 170.179,351.19 C 170.179,351.19 170.125,351.211 170.034,351.246 C 169.993,351.262 169.945,351.279 169.889,351.298 C 169.86,351.309 169.828,351.32 169.794,351.333 C 169.768,351.34 169.74,351.351 169.711,351.359 C 169.679,351.37 169.646,351.382 169.612,351.393 C 169.586,351.399 169.561,351.408 169.533,351.416 L 169.511,351.422 C 169.486,351.429 169.46,351.435 169.436,351.443 C 169.403,351.45 169.372,351.46 169.341,351.468 C 169.321,351.472 169.299,351.476 169.279,351.481 C 169.245,351.49 169.212,351.497 169.176,351.504 C 169.142,351.511 169.107,351.519 169.071,351.524"
         style="fill:#000000;fill-rule:evenodd;stroke:none" />
      <g
         id="g3378"
         transform="translate(159.6412,348.89841)">
        <path
           id="path3380"
           d="M 0,0 L 0,-1.247 L 0.809,-1.247 C 0.809,-1.247 0.826,-1.245 0.85,-1.245 C 0.878,-1.244 0.917,-1.242 0.965,-1.238 C 1.051,-1.23 1.168,-1.214 1.281,-1.175 C 1.382,-1.142 1.48,-1.091 1.556,-1.015 C 1.585,-0.985 1.61,-0.955 1.63,-0.924 C 1.692,-0.823 1.708,-0.723 1.711,-0.666 C 1.714,-0.639 1.714,-0.626 1.714,-0.626 L 1.714,-0.595 C 1.714,-0.571 1.71,-0.525 1.698,-0.474 C 1.682,-0.415 1.654,-0.347 1.603,-0.283 C 1.592,-0.272 1.582,-0.26 1.571,-0.25 C 1.549,-0.227 1.524,-0.205 1.498,-0.185 C 1.453,-0.154 1.403,-0.125 1.348,-0.102 C 1.275,-0.069 1.194,-0.046 1.102,-0.029 C 1.06,-0.021 1.009,-0.013 0.96,-0.01 C 0.929,-0.005 0.9,-0.004 0.867,-0.001 C 0.839,0 0.81,0 0.781,0 L 0,0 z "
           style="fill:#000000;fill-rule:evenodd;stroke:none" />
      </g>
      <g
         id="g3382"
         transform="translate(159.6412,350.7959)">
        <path
           id="path3384"
           d="M 0,0 L 0,-1.182 L 0.391,-1.182 C 0.391,-1.182 0.417,-1.182 0.451,-1.182 C 0.48,-1.181 0.51,-1.18 0.54,-1.177 C 0.62,-1.171 0.733,-1.16 0.843,-1.13 C 0.867,-1.123 0.889,-1.116 0.908,-1.108 C 0.996,-1.077 1.079,-1.033 1.147,-0.968 C 1.198,-0.917 1.232,-0.86 1.254,-0.804 C 1.282,-0.737 1.292,-0.673 1.296,-0.627 C 1.299,-0.585 1.299,-0.56 1.299,-0.56 C 1.299,-0.56 1.299,-0.54 1.298,-0.509 C 1.296,-0.458 1.286,-0.374 1.244,-0.294 C 1.225,-0.255 1.198,-0.218 1.161,-0.182 C 1.117,-0.139 1.065,-0.105 1.007,-0.079 C 0.896,-0.03 0.769,-0.011 0.664,-0.005 C 0.616,-0.002 0.575,0 0.539,0 L 0,0 z "
           style="fill:#000000;fill-rule:evenodd;stroke:none" />
      </g>
      <path
         id="path3386"
         d="M 157.053,352.407 L 163.796,352.407 L 163.796,346.062 L 157.053,346.062 L 157.053,352.407 z M 158.822,351.519 L 158.822,346.947 L 160.542,346.947 C 160.542,346.947 161.383,346.925 161.845,347.388 C 162.222,347.765 162.195,348.201 162.195,348.201 C 162.195,348.201 162.222,348.656 161.873,349.006 C 161.574,349.303 161.195,349.383 161.195,349.383 C 161.195,349.383 161.367,349.462 161.499,349.595 C 161.56,349.656 161.78,349.854 161.78,350.336 C 161.78,350.821 161.458,351.1 161.458,351.1 C 161.458,351.1 161.103,351.519 160.306,351.519 L 158.822,351.519 z "
         style="fill:#000000;fill-rule:evenodd;stroke:none" />
      <g
         id="g3388"
         transform="translate(151.8707,348.89841)">
        <path
           id="path3390"
           d="M 0,0 L 0,-1.247 L 0.811,-1.247 C 0.811,-1.247 0.826,-1.245 0.852,-1.245 C 0.879,-1.244 0.919,-1.242 0.966,-1.238 C 1.054,-1.23 1.169,-1.214 1.282,-1.175 C 1.383,-1.142 1.481,-1.091 1.558,-1.015 C 1.587,-0.985 1.61,-0.955 1.631,-0.924 C 1.694,-0.823 1.709,-0.723 1.712,-0.666 C 1.716,-0.639 1.716,-0.626 1.716,-0.626 L 1.716,-0.595 C 1.712,-0.571 1.71,-0.525 1.698,-0.474 C 1.683,-0.415 1.654,-0.347 1.603,-0.283 C 1.595,-0.272 1.584,-0.26 1.573,-0.25 C 1.549,-0.227 1.527,-0.205 1.501,-0.185 C 1.455,-0.154 1.404,-0.125 1.35,-0.102 C 1.276,-0.069 1.195,-0.046 1.105,-0.029 C 1.061,-0.021 1.011,-0.013 0.963,-0.01 C 0.932,-0.005 0.901,-0.004 0.869,-0.001 C 0.842,0 0.812,0 0.783,0 L 0,0 z "
           style="fill:#000000;fill-rule:evenodd;stroke:none" />
      </g>
      <g
         id="g3392"
         transform="translate(151.8707,350.7959)">
        <path
           id="path3394"
           d="M 0,0 L 0,-1.182 L 0.393,-1.182 C 0.393,-1.182 0.419,-1.182 0.453,-1.182 C 0.48,-1.181 0.513,-1.18 0.541,-1.177 C 0.622,-1.171 0.735,-1.16 0.845,-1.13 C 0.868,-1.123 0.888,-1.116 0.911,-1.108 C 0.997,-1.077 1.082,-1.033 1.147,-0.968 C 1.198,-0.917 1.231,-0.86 1.256,-0.804 C 1.283,-0.737 1.293,-0.673 1.297,-0.627 C 1.301,-0.585 1.301,-0.56 1.301,-0.56 L 1.301,-0.509 C 1.296,-0.458 1.286,-0.374 1.246,-0.294 C 1.226,-0.255 1.198,-0.218 1.164,-0.182 C 1.118,-0.139 1.065,-0.105 1.007,-0.079 C 0.896,-0.03 0.771,-0.011 0.663,-0.005 C 0.618,-0.002 0.576,0 0.541,0 L 0,0 z "
           style="fill:#000000;fill-rule:evenodd;stroke:none" />
      </g>
      <path
         id="path3396"
         d="M 149.283,352.407 L 156.026,352.407 L 156.026,346.062 L 149.283,346.062 L 149.283,352.407 z M 151.052,351.519 L 151.052,346.947 L 152.773,346.947 C 152.773,346.947 153.612,346.925 154.075,347.388 C 154.451,347.765 154.426,348.201 154.426,348.201 C 154.426,348.201 154.451,348.656 154.103,349.006 C 153.804,349.303 153.425,349.383 153.425,349.383 C 153.425,349.383 153.597,349.462 153.729,349.595 C 153.79,349.656 154.011,349.854 154.011,350.336 C 154.011,350.821 153.687,351.1 153.687,351.1 C 153.687,351.1 153.335,351.519 152.537,351.519 L 151.052,351.519 z "
         style="fill:#000000;fill-rule:evenodd;stroke:none" />
      <g
         id="g3398"
         transform="translate(150.0359,343.8429)">
        <path
           id="path3400"
           d="M 0,0 L 0.486,0 C 1.215,0 1.508,-0.299 1.516,-0.792 C 1.523,-1.231 1.292,-1.646 0.486,-1.646 L 0,-1.646 L 0,0 z M -0.753,0.648 L -0.753,-4.598 L 0,-4.598 L 0,-2.322 L 0.315,-2.322 C 0.702,-2.322 1.015,-2.446 1.709,-3.523 L 2.401,-4.598 L 3.299,-4.598 C 2.938,-4.101 2.808,-3.923 2.584,-3.561 C 2.184,-2.908 1.892,-2.423 1.415,-2.109 C 1.977,-1.884 2.292,-1.431 2.292,-0.822 C 2.292,0.085 1.631,0.648 0.57,0.648 L -0.753,0.648 z "
           style="fill:#000000;fill-rule:evenodd;stroke:none" />
      </g>
      <g
         id="g3402"
         transform="translate(155.8008,343.3654)">
        <path
           id="path3404"
           d="M 0,0 L 0.846,-1.898 L -0.786,-1.898 L 0,0 z M 0.276,1.154 L -0.255,1.154 L -2.508,-4.121 L -1.74,-4.121 L -1.077,-2.577 L 1.153,-2.577 L 1.853,-4.121 L 2.622,-4.121 L 0.276,1.154 z "
           style="fill:#000000;fill-rule:evenodd;stroke:none" />
      </g>
      <g
         id="g3406"
         transform="translate(159.80321,343.8125)">
        <path
           id="path3408"
           d="M 0,0 L 1.159,0 C 2.63,0 3.299,-0.892 3.299,-1.946 C 3.299,-2.593 2.906,-3.893 1.2,-3.893 L 0,-3.893 L 0,0 z M -0.755,-4.568 L 1.291,-4.568 C 3.022,-4.568 4.075,-3.292 4.075,-1.946 C 4.075,-0.708 3.221,0.678 1.284,0.678 L -0.755,0.678 L -0.755,-4.568 z "
           style="fill:#000000;fill-rule:evenodd;stroke:none" />
      </g>
      <path
         id="path3410"
         d="M 164.747,344.49 L 165.5,344.49 L 165.5,339.244 L 164.747,339.244 L 164.747,344.49 z "
         style="fill:#000000;fill-rule:evenodd;stroke:none" />
      <g
         id="g3412"
         transform="translate(167.1463,341.8662)">
        <path
           id="path3414"
           d="M 0,0 C 0,1.155 0.87,1.999 2.038,1.999 C 3.216,1.999 4.086,1.155 4.086,0 C 4.086,-1.146 3.216,-2 2.038,-2 C 0.87,-2 0,-1.146 0,0 M -0.777,0 C -0.777,-1.423 0.309,-2.692 2.023,-2.692 C 3.8,-2.692 4.861,-1.415 4.861,0 C 4.861,1.461 3.77,2.691 2.038,2.691 C 0.338,2.691 -0.777,1.453 -0.777,0"
           style="fill:#000000;fill-rule:evenodd;stroke:none" />
      </g>
      <g
         id="g3416"
         transform="translate(202.0695,326.4099)">
        <path
           id="path3418"
           d="M 0,0 L -18.357,0 L -8.882,11.126 C -7.532,12.65 -6.801,13.686 -6.801,14.795 C -6.801,15.791 -7.483,16.867 -8.587,16.867 C -9.909,16.867 -10.576,15.561 -10.626,14.633 L -10.674,13.758 L -16.755,13.758 L -16.703,14.733 C -16.613,16.446 -16.326,17.388 -15.521,18.61 C -13.891,21.09 -11.608,22.295 -8.54,22.295 C -3.373,22.295 -0.163,19.569 -0.163,15.181 C -0.163,13.33 -0.799,11.835 -2.268,10.208 L -6.037,5.902 L 0,5.902 L 0,0 z M -8.923,27.023 C -18.104,27.023 -25.547,19.576 -25.547,10.39 C -25.547,1.203 -18.104,-6.244 -8.923,-6.244 C 0.26,-6.244 7.701,1.203 7.701,10.39 C 7.701,19.576 0.26,27.023 -8.923,27.023"
           style="fill:#ed781a;fill-rule:nonzero;stroke:none" />
      </g>
    </g>
    <g
       id="g3612"
       transform="matrix(1,0,0,-1,119.88179,344.28221)" />
  </g>
</svg>
