<?xml version="1.0" encoding="UTF-8" standalone="no"?>
<!-- Created with Inkscape (http://www.inkscape.org/) -->
<svg
   xmlns:dc="http://purl.org/dc/elements/1.1/"
   xmlns:cc="http://web.resource.org/cc/"
   xmlns:rdf="http://www.w3.org/1999/02/22-rdf-syntax-ns#"
   xmlns:svg="http://www.w3.org/2000/svg"
   xmlns="http://www.w3.org/2000/svg"
   xmlns:xlink="http://www.w3.org/1999/xlink"
   xmlns:sodipodi="http://sodipodi.sourceforge.net/DTD/sodipodi-0.dtd"
   xmlns:inkscape="http://www.inkscape.org/namespaces/inkscape"
   width="275"
   height="110"
   id="svg2"
   sodipodi:version="0.32"
   inkscape:version="0.45.1"
   version="1.0"
   inkscape:output_extension="org.inkscape.output.svg.inkscape">
  <g
     inkscape:label="Layer 1"
     inkscape:groupmode="layer"
     id="layer1"
     transform="translate(-227.90617,-574.67691)">
    <g
       id="g2822"
       transform="matrix(1,0,0,-1,207.74489,417.97292)" />
    <g
       id="g3254"
       clip-path="url(#id196)"
       transform="matrix(3.3064688,0,0,-3.3064688,-1318.1093,1743.2901)">
      <g
         id="g3256"
         transform="translate(511.5508,353.4332)">
        <path
           id="path3258"
           d="M 0,0 C -9.182,0 -16.625,-7.447 -16.625,-16.633 C -16.625,-25.82 -9.182,-33.267 0,-33.267 C 9.182,-33.267 16.624,-25.82 16.624,-16.633 C 16.624,-7.447 9.182,0 0,0"
           style="fill:#ffffff;fill-rule:nonzero;stroke:none" />
      </g>
      <path
         id="path3260"
         d="M 483.226,352.408 L 489.969,352.408 L 489.969,346.062 L 483.226,346.062 L 483.226,352.408 z M 487.475,351.524 C 487.446,351.53 487.415,351.534 487.384,351.54 L 487.348,351.545 C 487.297,351.552 487.245,351.558 487.192,351.563 C 487.155,351.567 487.119,351.569 487.084,351.57 C 487.019,351.575 486.958,351.577 486.898,351.577 C 486.87,351.577 486.853,351.576 486.825,351.576 C 486.773,351.575 486.724,351.572 486.676,351.569 C 486.648,351.567 486.62,351.565 486.594,351.563 C 486.553,351.559 486.515,351.555 486.475,351.549 L 486.442,351.546 L 486.404,351.54 L 486.36,351.532 C 486.341,351.53 486.322,351.526 486.304,351.522 C 486.276,351.519 486.249,351.512 486.225,351.507 C 486.064,351.473 485.916,351.429 485.781,351.376 C 485.71,351.348 485.641,351.318 485.578,351.287 C 485.524,351.26 485.473,351.232 485.422,351.204 C 485.375,351.177 485.329,351.148 485.284,351.119 C 485.259,351.101 485.234,351.086 485.208,351.067 C 485.188,351.051 485.167,351.037 485.147,351.022 C 485.104,350.989 485.063,350.954 485.023,350.921 C 484.988,350.888 484.953,350.856 484.92,350.824 C 484.892,350.797 484.863,350.768 484.838,350.736 C 484.809,350.706 484.782,350.676 484.757,350.643 C 484.727,350.609 484.703,350.575 484.676,350.538 C 484.655,350.511 484.637,350.483 484.618,350.454 C 484.605,350.435 484.594,350.417 484.583,350.396 C 484.511,350.283 484.451,350.16 484.399,350.029 C 484.336,349.864 484.291,349.687 484.265,349.502 C 484.259,349.442 484.253,349.382 484.248,349.32 C 484.245,349.273 484.244,349.225 484.244,349.178 C 484.244,349.141 484.244,349.106 484.245,349.071 C 484.248,349.034 484.253,348.998 484.257,348.962 L 484.259,348.936 C 484.264,348.892 484.271,348.85 484.279,348.809 C 484.283,348.792 484.286,348.777 484.289,348.76 C 484.296,348.726 484.305,348.692 484.312,348.657 C 484.325,348.615 484.337,348.572 484.352,348.529 C 484.369,348.478 484.388,348.427 484.408,348.378 C 484.441,348.301 484.477,348.227 484.514,348.156 C 484.538,348.115 484.561,348.075 484.584,348.035 C 484.604,348.006 484.623,347.976 484.642,347.947 C 484.669,347.908 484.697,347.872 484.724,347.837 C 484.751,347.8 484.782,347.767 484.812,347.733 C 484.846,347.692 484.882,347.654 484.918,347.619 L 484.935,347.601 C 484.966,347.573 484.996,347.542 485.033,347.51 C 485.057,347.491 485.083,347.469 485.111,347.447 C 485.136,347.427 485.164,347.405 485.192,347.385 C 485.227,347.36 485.26,347.337 485.298,347.311 C 485.341,347.288 485.383,347.26 485.427,347.235 C 485.516,347.185 485.615,347.137 485.724,347.093 C 485.763,347.077 485.805,347.063 485.849,347.048 C 485.891,347.032 485.935,347.019 485.98,347.006 C 486.059,346.985 486.141,346.964 486.226,346.947 C 486.294,346.933 486.368,346.922 486.442,346.915 C 486.515,346.905 486.591,346.898 486.669,346.894 C 486.709,346.892 486.748,346.892 486.786,346.888 L 486.842,346.888 C 486.984,346.888 487.115,346.895 487.236,346.905 L 487.26,346.907 C 487.309,346.911 487.355,346.916 487.4,346.922 C 487.471,346.93 487.535,346.94 487.598,346.952 C 487.638,346.958 487.676,346.967 487.714,346.974 C 487.773,346.988 487.828,347.002 487.88,347.015 C 487.919,347.024 487.957,347.035 487.994,347.047 C 488.038,347.059 488.078,347.074 488.118,347.088 L 488.157,347.1 C 488.176,347.107 488.202,347.117 488.232,347.128 C 488.273,347.144 488.322,347.163 488.377,347.188 C 488.411,347.202 488.448,347.218 488.485,347.235 C 488.516,347.251 488.552,347.268 488.588,347.284 C 488.601,347.291 488.616,347.299 488.632,347.305 L 488.632,348.172 C 488.621,348.165 488.61,348.158 488.6,348.152 L 488.541,348.117 C 488.482,348.08 488.425,348.047 488.368,348.015 C 488.306,347.982 488.242,347.95 488.181,347.92 C 488.075,347.87 487.972,347.828 487.873,347.793 C 487.684,347.725 487.511,347.683 487.359,347.655 C 487.34,347.652 487.322,347.648 487.305,347.646 C 487.262,347.64 487.223,347.634 487.183,347.63 C 487.123,347.624 487.067,347.621 487.018,347.618 C 486.984,347.617 486.955,347.615 486.925,347.615 C 486.864,347.615 486.801,347.617 486.735,347.622 C 486.66,347.628 486.585,347.637 486.506,347.648 C 486.381,347.67 486.255,347.702 486.134,347.747 C 486.115,347.752 486.097,347.76 486.079,347.768 C 486.067,347.771 486.055,347.777 486.043,347.782 C 486.024,347.791 486.004,347.799 485.983,347.808 C 485.941,347.828 485.899,347.849 485.857,347.873 C 485.838,347.885 485.819,347.897 485.797,347.909 C 485.777,347.922 485.756,347.936 485.736,347.952 C 485.712,347.967 485.685,347.986 485.663,348.005 C 485.638,348.024 485.615,348.044 485.593,348.06 L 485.565,348.086 L 485.551,348.1 L 485.542,348.107 L 485.531,348.117 C 485.492,348.156 485.457,348.195 485.423,348.235 C 485.407,348.256 485.389,348.279 485.372,348.3 C 485.357,348.321 485.343,348.343 485.329,348.365 C 485.315,348.385 485.302,348.405 485.291,348.426 C 485.273,348.456 485.256,348.486 485.24,348.517 C 485.229,348.542 485.217,348.569 485.207,348.594 C 485.188,348.637 485.172,348.682 485.159,348.724 C 485.148,348.755 485.14,348.789 485.13,348.82 C 485.109,348.909 485.098,348.992 485.09,349.063 C 485.086,349.09 485.086,349.115 485.084,349.139 C 485.083,349.172 485.083,349.202 485.083,349.226 L 485.083,349.281 C 485.084,349.33 485.09,349.393 485.1,349.464 C 485.106,349.508 485.115,349.554 485.127,349.603 C 485.134,349.636 485.143,349.668 485.153,349.702 C 485.164,349.733 485.174,349.763 485.188,349.797 C 485.194,349.818 485.203,349.839 485.213,349.86 C 485.226,349.889 485.24,349.918 485.255,349.947 C 485.267,349.971 485.279,349.994 485.293,350.015 C 485.32,350.064 485.354,350.113 485.389,350.162 C 485.403,350.18 485.416,350.197 485.43,350.214 C 485.449,350.236 485.468,350.259 485.488,350.281 C 485.499,350.291 485.509,350.303 485.52,350.314 C 485.679,350.472 485.857,350.591 486.04,350.675 C 486.07,350.687 486.099,350.7 486.128,350.711 C 486.158,350.723 486.186,350.733 486.216,350.744 C 486.247,350.755 486.28,350.764 486.312,350.773 C 486.342,350.782 486.374,350.789 486.404,350.797 C 486.435,350.804 486.466,350.81 486.495,350.815 C 486.528,350.821 486.562,350.826 486.596,350.831 C 486.629,350.835 486.661,350.839 486.695,350.84 C 486.759,350.846 486.819,350.849 486.879,350.849 C 486.902,350.849 486.921,350.849 486.941,350.848 C 486.986,350.848 487.028,350.846 487.071,350.844 C 487.102,350.84 487.131,350.84 487.16,350.837 C 487.212,350.831 487.267,350.826 487.316,350.818 C 487.36,350.811 487.404,350.804 487.444,350.797 C 487.505,350.783 487.562,350.77 487.615,350.755 C 487.646,350.748 487.676,350.739 487.704,350.73 C 487.745,350.717 487.782,350.706 487.81,350.697 C 487.857,350.68 487.885,350.671 487.885,350.671 C 487.927,350.656 487.97,350.637 488.01,350.623 C 488.066,350.599 488.118,350.577 488.169,350.553 C 488.21,350.534 488.249,350.514 488.287,350.498 C 488.318,350.482 488.347,350.466 488.374,350.453 C 488.421,350.428 488.462,350.406 488.494,350.388 L 488.583,350.34 L 488.583,351.191 C 488.583,351.191 488.529,351.212 488.438,351.247 C 488.398,351.262 488.349,351.279 488.294,351.298 C 488.265,351.31 488.233,351.321 488.199,351.333 C 488.172,351.341 488.145,351.351 488.115,351.359 C 488.083,351.37 488.051,351.383 488.016,351.393 C 487.99,351.399 487.965,351.408 487.938,351.416 L 487.915,351.422 C 487.891,351.43 487.864,351.435 487.84,351.443 C 487.807,351.45 487.776,351.46 487.745,351.468 C 487.725,351.472 487.703,351.476 487.683,351.482 C 487.649,351.49 487.617,351.497 487.581,351.504 C 487.546,351.511 487.511,351.519 487.475,351.524"
         style="fill:#000000;fill-rule:evenodd;stroke:none" />
      <g
         id="g3262"
         transform="translate(478.0455,348.89861)">
        <path
           id="path3264"
           d="M 0,0 L 0,-1.247 L 0.809,-1.247 C 0.809,-1.247 0.826,-1.245 0.85,-1.245 C 0.878,-1.244 0.917,-1.242 0.965,-1.238 C 1.051,-1.23 1.168,-1.214 1.281,-1.175 C 1.382,-1.142 1.48,-1.091 1.556,-1.015 C 1.585,-0.985 1.61,-0.955 1.63,-0.924 C 1.692,-0.823 1.708,-0.723 1.711,-0.666 C 1.714,-0.639 1.714,-0.626 1.714,-0.626 C 1.714,-0.626 1.714,-0.614 1.714,-0.595 C 1.714,-0.571 1.71,-0.525 1.698,-0.474 C 1.682,-0.415 1.654,-0.347 1.603,-0.283 C 1.592,-0.272 1.582,-0.26 1.571,-0.25 C 1.549,-0.227 1.524,-0.205 1.498,-0.185 C 1.453,-0.154 1.403,-0.125 1.348,-0.102 C 1.275,-0.069 1.194,-0.046 1.102,-0.029 C 1.06,-0.021 1.009,-0.013 0.961,-0.01 C 0.929,-0.005 0.9,-0.004 0.867,-0.002 C 0.839,0 0.81,0 0.781,0 L 0,0 z "
           style="fill:#000000;fill-rule:evenodd;stroke:none" />
      </g>
      <g
         id="g3266"
         transform="translate(478.0455,350.7961)">
        <path
           id="path3268"
           d="M 0,0 L 0,-1.182 L 0.391,-1.182 C 0.391,-1.182 0.417,-1.182 0.451,-1.182 C 0.48,-1.181 0.511,-1.18 0.54,-1.177 C 0.621,-1.171 0.733,-1.16 0.843,-1.13 C 0.867,-1.123 0.889,-1.116 0.908,-1.108 C 0.996,-1.077 1.08,-1.033 1.147,-0.968 C 1.198,-0.917 1.232,-0.86 1.254,-0.804 C 1.282,-0.737 1.292,-0.673 1.296,-0.627 C 1.299,-0.585 1.299,-0.56 1.299,-0.56 C 1.299,-0.56 1.299,-0.541 1.298,-0.509 C 1.296,-0.458 1.285,-0.374 1.244,-0.294 C 1.225,-0.255 1.198,-0.218 1.161,-0.183 C 1.117,-0.139 1.065,-0.105 1.007,-0.079 C 0.896,-0.03 0.769,-0.011 0.664,-0.005 C 0.616,-0.002 0.575,0 0.539,0 L 0,0 z "
           style="fill:#000000;fill-rule:evenodd;stroke:none" />
      </g>
      <path
         id="path3270"
         d="M 475.457,352.408 L 482.2,352.408 L 482.2,346.062 L 475.457,346.062 L 475.457,352.408 z M 477.226,351.519 L 477.226,346.947 L 478.947,346.947 C 478.947,346.947 479.787,346.926 480.249,347.388 C 480.626,347.765 480.599,348.202 480.599,348.202 C 480.599,348.202 480.626,348.656 480.277,349.007 C 479.978,349.303 479.6,349.384 479.6,349.384 C 479.6,349.384 479.771,349.462 479.904,349.595 C 479.965,349.656 480.184,349.855 480.184,350.336 C 480.184,350.821 479.862,351.1 479.862,351.1 C 479.862,351.1 479.507,351.519 478.71,351.519 L 477.226,351.519 z "
         style="fill:#000000;fill-rule:evenodd;stroke:none" />
      <g
         id="g3272"
         transform="translate(470.27499,348.89861)">
        <path
           id="path3274"
           d="M 0,0 L 0,-1.247 L 0.811,-1.247 C 0.811,-1.247 0.826,-1.245 0.853,-1.245 C 0.879,-1.244 0.919,-1.242 0.966,-1.238 C 1.054,-1.23 1.169,-1.214 1.282,-1.175 C 1.383,-1.142 1.481,-1.091 1.558,-1.015 C 1.587,-0.985 1.61,-0.955 1.631,-0.924 C 1.694,-0.823 1.709,-0.723 1.712,-0.666 C 1.716,-0.639 1.716,-0.626 1.716,-0.626 L 1.716,-0.595 C 1.712,-0.571 1.71,-0.525 1.698,-0.474 C 1.683,-0.415 1.654,-0.347 1.603,-0.283 C 1.595,-0.272 1.584,-0.26 1.573,-0.25 C 1.549,-0.227 1.527,-0.205 1.501,-0.185 C 1.455,-0.154 1.404,-0.125 1.35,-0.102 C 1.276,-0.069 1.195,-0.046 1.105,-0.029 C 1.061,-0.021 1.011,-0.013 0.963,-0.01 C 0.932,-0.005 0.901,-0.004 0.869,-0.002 C 0.842,0 0.812,0 0.783,0 L 0,0 z "
           style="fill:#000000;fill-rule:evenodd;stroke:none" />
      </g>
      <g
         id="g3276"
         transform="translate(470.27499,350.7961)">
        <path
           id="path3278"
           d="M 0,0 L 0,-1.182 L 0.393,-1.182 C 0.393,-1.182 0.419,-1.182 0.452,-1.182 C 0.48,-1.181 0.513,-1.18 0.541,-1.177 C 0.622,-1.171 0.735,-1.16 0.845,-1.13 C 0.868,-1.123 0.888,-1.116 0.911,-1.108 C 0.997,-1.077 1.082,-1.033 1.147,-0.968 C 1.198,-0.917 1.231,-0.86 1.256,-0.804 C 1.283,-0.737 1.293,-0.673 1.297,-0.627 C 1.301,-0.585 1.301,-0.56 1.301,-0.56 L 1.301,-0.509 C 1.296,-0.458 1.286,-0.374 1.246,-0.294 C 1.226,-0.255 1.198,-0.218 1.164,-0.183 C 1.118,-0.139 1.065,-0.105 1.007,-0.079 C 0.896,-0.03 0.771,-0.011 0.663,-0.005 C 0.618,-0.002 0.576,0 0.541,0 L 0,0 z "
           style="fill:#000000;fill-rule:evenodd;stroke:none" />
      </g>
      <path
         id="path3280"
         d="M 467.687,352.408 L 474.43,352.408 L 474.43,346.062 L 467.687,346.062 L 467.687,352.408 z M 469.456,351.519 L 469.456,346.947 L 471.177,346.947 C 471.177,346.947 472.016,346.926 472.479,347.388 C 472.856,347.765 472.83,348.202 472.83,348.202 C 472.83,348.202 472.856,348.656 472.507,349.007 C 472.208,349.303 471.83,349.384 471.83,349.384 C 471.83,349.384 472.002,349.462 472.133,349.595 C 472.195,349.656 472.415,349.855 472.415,350.336 C 472.415,350.821 472.092,351.1 472.092,351.1 C 472.092,351.1 471.739,351.519 470.941,351.519 L 469.456,351.519 z "
         style="fill:#000000;fill-rule:evenodd;stroke:none" />
      <g
         id="g3282"
         transform="translate(468.4402,343.84309)">
        <path
           id="path3284"
           d="M 0,0 L 0.486,0 C 1.215,0 1.508,-0.299 1.516,-0.792 C 1.523,-1.231 1.293,-1.646 0.486,-1.646 L 0,-1.646 L 0,0 z M -0.753,0.647 L -0.753,-4.598 L 0,-4.598 L 0,-2.322 L 0.315,-2.322 C 0.702,-2.322 1.015,-2.446 1.709,-3.523 L 2.401,-4.598 L 3.3,-4.598 C 2.938,-4.101 2.808,-3.923 2.584,-3.56 C 2.184,-2.908 1.892,-2.423 1.415,-2.108 C 1.977,-1.884 2.293,-1.431 2.293,-0.822 C 2.293,0.085 1.631,0.647 0.57,0.647 L -0.753,0.647 z "
           style="fill:#000000;fill-rule:evenodd;stroke:none" />
      </g>
      <g
         id="g3286"
         transform="translate(474.20509,343.3656)">
        <path
           id="path3288"
           d="M 0,0 L 0.846,-1.898 L -0.785,-1.898 L 0,0 z M 0.276,1.154 L -0.255,1.154 L -2.508,-4.121 L -1.74,-4.121 L -1.077,-2.577 L 1.153,-2.577 L 1.853,-4.121 L 2.622,-4.121 L 0.276,1.154 z "
           style="fill:#000000;fill-rule:evenodd;stroke:none" />
      </g>
      <g
         id="g3290"
         transform="translate(478.2075,343.8127)">
        <path
           id="path3292"
           d="M 0,0 L 1.159,0 C 2.63,0 3.299,-0.892 3.299,-1.946 C 3.299,-2.592 2.906,-3.892 1.2,-3.892 L 0,-3.892 L 0,0 z M -0.755,-4.568 L 1.291,-4.568 C 3.022,-4.568 4.075,-3.292 4.075,-1.946 C 4.075,-0.708 3.221,0.678 1.284,0.678 L -0.755,0.678 L -0.755,-4.568 z "
           style="fill:#000000;fill-rule:evenodd;stroke:none" />
      </g>
      <path
         id="path3294"
         d="M 483.151,344.491 L 483.904,344.491 L 483.904,339.245 L 483.151,339.245 L 483.151,344.491 z "
         style="fill:#000000;fill-rule:evenodd;stroke:none" />
      <g
         id="g3296"
         transform="translate(485.5507,341.86639)">
        <path
           id="path3298"
           d="M 0,0 C 0,1.154 0.87,1.999 2.039,1.999 C 3.216,1.999 4.085,1.154 4.085,0 C 4.085,-1.146 3.216,-2 2.039,-2 C 0.87,-2 0,-1.146 0,0 M -0.777,0 C -0.777,-1.423 0.309,-2.691 2.023,-2.691 C 3.8,-2.691 4.861,-1.415 4.861,0 C 4.861,1.461 3.77,2.691 2.039,2.691 C 0.338,2.691 -0.777,1.453 -0.777,0"
           style="fill:#000000;fill-rule:evenodd;stroke:none" />
      </g>
      <g
         id="g3300"
         transform="translate(512.515,340.70509)">
        <path
           id="path3302"
           d="M 0,0 C 4.21,0 7.151,-3.209 7.151,-7.805 C 7.151,-10.028 6.28,-12.105 4.699,-13.654 C 3.086,-15.231 0.948,-16.074 -1.306,-16.026 C -5.11,-16.026 -8.966,-14.134 -9.655,-9.948 L -3.6,-9.948 C -3.129,-10.653 -2.351,-11.069 -1.396,-11.069 C 0.455,-11.069 1.453,-9.387 1.453,-7.805 C 1.453,-6.24 0.572,-4.659 -1.396,-4.659 C -2.575,-4.659 -3.226,-5.003 -3.974,-6.02 L -4.152,-6.261 L -9.458,-6.261 L -6.73,7.289 L 7.436,7.289 L 6.456,2.349 L -2.475,2.349 C -2.475,2.349 -2.897,0.415 -3.092,-0.689 C -2.203,-0.224 -1.192,0 0,0 M -0.964,12.728 C -10.146,12.728 -17.589,5.281 -17.589,-3.905 C -17.589,-13.092 -10.146,-20.539 -0.964,-20.539 C 8.218,-20.539 15.66,-13.092 15.66,-3.905 C 15.66,5.281 8.218,12.728 -0.964,12.728"
           style="fill:#1cacd5;fill-rule:nonzero;stroke:none" />
      </g>
      <g
         id="g3304"
         transform="translate(535.9774,343.0257)">
        <path
           id="path3306"
           d="M 0,0 L -2.102,0 L -2.326,-1.52 L -0.224,-1.52 L 0,0 z "
           style="fill:#1cacd5;fill-rule:nonzero;stroke:none" />
      </g>
      <g
         id="g3308"
         transform="translate(534.51849,331.81841)">
        <path
           id="path3310"
           d="M 0,0 L 1.114,8.508 L -0.986,8.508 L -2.1,0 L 0,0 z "
           style="fill:#1cacd5;fill-rule:nonzero;stroke:none" />
      </g>
      <g
         id="g3312"
         transform="translate(540.0022,331.81841)">
        <path
           id="path3314"
           d="M 0,0 L 4.236,8.508 L 1.984,8.508 C 1.984,8.508 0.039,4.337 -0.415,3.363 C -0.626,4.398 -1.465,8.508 -1.465,8.508 L -3.676,8.508 L -1.67,0 L 0,0 z "
           style="fill:#1cacd5;fill-rule:nonzero;stroke:none" />
      </g>
      <g
         id="g3316"
         transform="translate(548.5092,337.0339)">
        <path
           id="path3318"
           d="M 0,0 L -2.859,0 C -2.63,0.861 -2.024,1.386 -1.22,1.386 C -0.838,1.386 -0.526,1.266 -0.318,1.038 C -0.107,0.807 0.002,0.463 0.002,0.036 C 0.002,0.026 0,0.012 0,0 M 1.381,2.366 C 0.802,3.025 -0.05,3.388 -1.02,3.388 C -2.721,3.388 -4.691,2.247 -5.109,-0.954 C -5.304,-2.438 -5.07,-3.57 -4.414,-4.317 C -3.844,-4.967 -2.954,-5.31 -1.843,-5.31 C -0.615,-5.31 0.505,-4.837 1.394,-3.941 L 1.568,-3.767 L 0.187,-2.444 L 0.02,-2.596 C -0.463,-3.035 -1.112,-3.309 -1.676,-3.309 C -2.176,-3.309 -2.569,-3.161 -2.813,-2.882 C -3.014,-2.654 -3.117,-2.332 -3.117,-1.939 C -3.117,-1.898 -3.111,-1.854 -3.108,-1.811 L 1.882,-1.811 L 2.083,-0.272 C 2.107,-0.089 2.12,0.091 2.12,0.267 C 2.12,1.083 1.864,1.815 1.381,2.366"
           style="fill:#1cacd5;fill-rule:nonzero;stroke:none" />
      </g>
      <g
         id="g3320"
         transform="translate(532.508,343.0257)">
        <path
           id="path3322"
           d="M 0,0 L -2.1,0 L -3.575,-11.199 L -1.474,-11.199 L 0,0 z "
           style="fill:#1cacd5;fill-rule:nonzero;stroke:none" />
      </g>
    </g>
    <g
       id="g3612"
       transform="matrix(1,0,0,-1,119.88179,344.28221)" />
  </g>
</svg>
