<?xml version="1.0" encoding="UTF-8" standalone="no"?>
<!-- Created with Inkscape (http://www.inkscape.org/) -->
<svg
   xmlns:dc="http://purl.org/dc/elements/1.1/"
   xmlns:cc="http://web.resource.org/cc/"
   xmlns:rdf="http://www.w3.org/1999/02/22-rdf-syntax-ns#"
   xmlns:svg="http://www.w3.org/2000/svg"
   xmlns="http://www.w3.org/2000/svg"
   xmlns:xlink="http://www.w3.org/1999/xlink"
   xmlns:sodipodi="http://sodipodi.sourceforge.net/DTD/sodipodi-0.dtd"
   xmlns:inkscape="http://www.inkscape.org/namespaces/inkscape"
   width="200"
   height="110"
   id="svg2"
   sodipodi:version="0.32"
   inkscape:version="0.45.1"
   version="1.0"
   inkscape:output_extension="org.inkscape.output.svg.inkscape">
  <g
     inkscape:label="Layer 1"
     inkscape:groupmode="layer"
     id="layer1"
     transform="translate(-11.40167,-783.25201)">
    <g
       id="g2822"
       transform="matrix(1,0,0,-1,99.17347,772.25863)" />
    <g
       id="g3324"
       clip-path="url(#id197)"
       transform="matrix(3.306419,0,0,-3.306419,-129.48815,1951.8543)">
      <path
         id="path3326"
         d="M 58.15,352.408 L 64.893,352.408 L 64.893,346.062 L 58.15,346.062 L 58.15,352.408 z M 62.399,351.524 C 62.37,351.53 62.338,351.534 62.308,351.54 L 62.272,351.545 C 62.22,351.552 62.169,351.558 62.115,351.562 C 62.079,351.567 62.043,351.569 62.008,351.57 C 61.943,351.575 61.881,351.577 61.821,351.577 C 61.793,351.577 61.776,351.576 61.749,351.576 C 61.697,351.575 61.648,351.572 61.599,351.569 C 61.572,351.567 61.544,351.565 61.517,351.562 C 61.477,351.559 61.438,351.556 61.398,351.549 L 61.365,351.546 L 61.328,351.54 L 61.284,351.532 C 61.265,351.53 61.246,351.526 61.227,351.522 C 61.199,351.519 61.173,351.512 61.148,351.507 C 60.988,351.473 60.84,351.429 60.704,351.376 C 60.633,351.348 60.565,351.318 60.502,351.287 C 60.447,351.26 60.397,351.232 60.346,351.204 C 60.298,351.176 60.253,351.148 60.208,351.119 C 60.183,351.101 60.157,351.086 60.132,351.067 C 60.111,351.051 60.091,351.037 60.07,351.022 C 60.028,350.989 59.986,350.954 59.947,350.921 C 59.912,350.888 59.877,350.856 59.844,350.824 C 59.816,350.797 59.786,350.768 59.762,350.736 C 59.733,350.706 59.706,350.676 59.68,350.643 C 59.651,350.609 59.627,350.575 59.6,350.538 C 59.578,350.511 59.561,350.483 59.542,350.455 C 59.528,350.435 59.517,350.417 59.507,350.396 C 59.435,350.283 59.374,350.16 59.322,350.029 C 59.26,349.864 59.214,349.687 59.189,349.502 C 59.183,349.442 59.177,349.382 59.172,349.32 C 59.169,349.273 59.168,349.225 59.168,349.178 C 59.168,349.141 59.168,349.106 59.169,349.07 C 59.172,349.034 59.177,348.998 59.18,348.962 L 59.183,348.936 C 59.188,348.892 59.195,348.85 59.203,348.809 C 59.207,348.792 59.21,348.777 59.213,348.76 C 59.22,348.726 59.229,348.692 59.236,348.657 C 59.248,348.614 59.261,348.572 59.276,348.529 C 59.293,348.477 59.312,348.427 59.331,348.378 C 59.365,348.301 59.401,348.227 59.438,348.156 C 59.461,348.115 59.484,348.075 59.508,348.035 C 59.528,348.006 59.547,347.976 59.566,347.947 C 59.592,347.908 59.62,347.872 59.647,347.837 C 59.675,347.8 59.706,347.767 59.736,347.733 C 59.77,347.692 59.806,347.654 59.841,347.619 L 59.859,347.601 C 59.89,347.573 59.92,347.542 59.957,347.51 C 59.981,347.491 60.007,347.468 60.035,347.447 C 60.06,347.427 60.088,347.405 60.115,347.385 C 60.151,347.36 60.184,347.336 60.222,347.311 C 60.265,347.288 60.307,347.26 60.351,347.235 C 60.44,347.185 60.538,347.137 60.647,347.093 C 60.686,347.077 60.729,347.062 60.772,347.048 C 60.815,347.032 60.859,347.019 60.904,347.006 C 60.983,346.985 61.065,346.964 61.149,346.947 C 61.218,346.933 61.292,346.923 61.365,346.915 C 61.439,346.905 61.515,346.898 61.592,346.894 C 61.632,346.891 61.672,346.891 61.71,346.889 L 61.766,346.889 C 61.908,346.889 62.038,346.895 62.16,346.905 L 62.184,346.907 C 62.233,346.911 62.278,346.916 62.324,346.923 C 62.395,346.93 62.459,346.94 62.522,346.952 C 62.562,346.958 62.6,346.967 62.638,346.974 C 62.697,346.988 62.752,347.001 62.804,347.015 C 62.843,347.024 62.881,347.035 62.918,347.047 C 62.961,347.059 63.001,347.074 63.042,347.088 L 63.08,347.1 C 63.099,347.107 63.126,347.117 63.155,347.128 C 63.196,347.144 63.245,347.164 63.301,347.188 C 63.335,347.202 63.371,347.218 63.409,347.235 C 63.439,347.251 63.475,347.268 63.512,347.284 C 63.524,347.291 63.54,347.299 63.556,347.305 L 63.556,348.172 C 63.545,348.165 63.533,348.157 63.524,348.152 L 63.465,348.117 C 63.405,348.081 63.348,348.047 63.292,348.015 C 63.23,347.982 63.166,347.951 63.105,347.92 C 62.999,347.87 62.895,347.828 62.797,347.793 C 62.608,347.725 62.435,347.683 62.283,347.655 C 62.264,347.652 62.246,347.648 62.229,347.646 C 62.186,347.64 62.146,347.634 62.106,347.63 C 62.047,347.624 61.99,347.621 61.942,347.618 C 61.908,347.617 61.879,347.615 61.849,347.615 C 61.788,347.615 61.725,347.617 61.659,347.622 C 61.584,347.628 61.509,347.637 61.43,347.648 C 61.305,347.67 61.179,347.702 61.058,347.746 C 61.038,347.752 61.021,347.76 61.003,347.768 C 60.991,347.771 60.979,347.776 60.966,347.782 C 60.947,347.791 60.928,347.799 60.907,347.808 C 60.864,347.828 60.822,347.849 60.781,347.873 C 60.762,347.885 60.742,347.898 60.721,347.909 C 60.701,347.923 60.68,347.936 60.659,347.952 C 60.636,347.967 60.609,347.986 60.586,348.004 C 60.562,348.024 60.538,348.044 60.516,348.06 L 60.489,348.086 L 60.474,348.099 L 60.466,348.107 L 60.455,348.117 C 60.416,348.156 60.381,348.195 60.347,348.235 C 60.331,348.256 60.313,348.279 60.295,348.3 C 60.28,348.322 60.266,348.343 60.253,348.365 C 60.239,348.385 60.226,348.405 60.215,348.426 C 60.197,348.456 60.18,348.486 60.164,348.517 C 60.153,348.542 60.141,348.569 60.131,348.594 C 60.111,348.637 60.096,348.681 60.083,348.724 C 60.072,348.755 60.063,348.789 60.054,348.82 C 60.033,348.909 60.021,348.992 60.014,349.063 C 60.01,349.09 60.01,349.115 60.008,349.139 C 60.007,349.172 60.007,349.202 60.007,349.226 L 60.007,349.281 C 60.008,349.33 60.014,349.393 60.023,349.464 C 60.029,349.508 60.038,349.554 60.05,349.603 C 60.058,349.636 60.066,349.668 60.077,349.702 C 60.088,349.733 60.098,349.763 60.111,349.797 C 60.117,349.818 60.126,349.839 60.137,349.86 C 60.15,349.889 60.164,349.919 60.179,349.947 C 60.19,349.971 60.203,349.994 60.216,350.015 C 60.244,350.064 60.277,350.113 60.313,350.162 C 60.326,350.18 60.34,350.197 60.353,350.215 C 60.372,350.236 60.391,350.26 60.411,350.281 C 60.423,350.291 60.433,350.303 60.443,350.314 C 60.602,350.472 60.781,350.591 60.964,350.675 C 60.994,350.687 61.023,350.7 61.052,350.711 C 61.082,350.723 61.11,350.734 61.14,350.744 C 61.171,350.755 61.203,350.764 61.236,350.773 C 61.266,350.782 61.298,350.789 61.328,350.797 C 61.358,350.804 61.39,350.81 61.419,350.815 C 61.452,350.821 61.485,350.826 61.519,350.831 C 61.552,350.835 61.585,350.839 61.619,350.841 C 61.682,350.846 61.743,350.85 61.803,350.85 C 61.825,350.85 61.844,350.85 61.865,350.848 C 61.91,350.848 61.952,350.846 61.995,350.845 C 62.026,350.841 62.054,350.841 62.084,350.838 C 62.136,350.832 62.191,350.826 62.239,350.818 C 62.284,350.811 62.328,350.804 62.367,350.797 C 62.429,350.783 62.486,350.77 62.538,350.755 C 62.57,350.748 62.6,350.739 62.628,350.73 C 62.669,350.717 62.706,350.706 62.734,350.697 C 62.781,350.68 62.809,350.671 62.809,350.671 C 62.851,350.656 62.893,350.638 62.934,350.623 C 62.99,350.599 63.042,350.577 63.092,350.554 C 63.134,350.534 63.173,350.514 63.211,350.498 C 63.242,350.482 63.271,350.466 63.297,350.453 C 63.345,350.428 63.385,350.406 63.418,350.388 L 63.507,350.34 L 63.507,351.191 C 63.507,351.191 63.452,351.212 63.362,351.247 C 63.321,351.262 63.273,351.279 63.218,351.298 C 63.188,351.309 63.156,351.321 63.122,351.333 C 63.095,351.341 63.068,351.351 63.039,351.359 C 63.006,351.37 62.974,351.383 62.94,351.393 C 62.913,351.399 62.889,351.408 62.861,351.416 L 62.839,351.423 C 62.814,351.429 62.787,351.436 62.764,351.443 C 62.731,351.45 62.699,351.46 62.669,351.469 C 62.649,351.472 62.627,351.476 62.607,351.482 C 62.572,351.49 62.54,351.498 62.505,351.504 C 62.47,351.511 62.435,351.519 62.399,351.524"
         style="fill:#000000;fill-rule:evenodd;stroke:none" />
      <g
         id="g3328"
         transform="translate(52.968994,348.89861)">
        <path
           id="path3330"
           d="M 0,0 L 0,-1.247 L 0.809,-1.247 C 0.809,-1.247 0.826,-1.245 0.85,-1.245 C 0.878,-1.244 0.917,-1.242 0.965,-1.239 C 1.051,-1.23 1.168,-1.214 1.281,-1.175 C 1.382,-1.143 1.48,-1.091 1.556,-1.015 C 1.586,-0.985 1.61,-0.955 1.63,-0.924 C 1.692,-0.824 1.708,-0.723 1.712,-0.666 C 1.714,-0.639 1.714,-0.626 1.714,-0.626 C 1.714,-0.626 1.714,-0.614 1.714,-0.595 C 1.714,-0.571 1.71,-0.525 1.698,-0.474 C 1.682,-0.415 1.655,-0.347 1.604,-0.283 C 1.593,-0.272 1.582,-0.26 1.571,-0.249 C 1.549,-0.227 1.524,-0.205 1.498,-0.185 C 1.453,-0.153 1.403,-0.125 1.348,-0.102 C 1.275,-0.069 1.194,-0.046 1.103,-0.03 C 1.06,-0.021 1.009,-0.013 0.961,-0.01 C 0.929,-0.005 0.9,-0.004 0.867,-0.002 C 0.839,0 0.811,0 0.781,0 L 0,0 z "
           style="fill:#000000;fill-rule:evenodd;stroke:none" />
      </g>
      <g
         id="g3332"
         transform="translate(52.968994,350.7961)">
        <path
           id="path3334"
           d="M 0,0 L 0,-1.182 L 0.391,-1.182 C 0.391,-1.182 0.417,-1.182 0.452,-1.182 C 0.481,-1.181 0.511,-1.18 0.54,-1.177 C 0.62,-1.171 0.733,-1.16 0.843,-1.13 C 0.867,-1.123 0.889,-1.116 0.908,-1.108 C 0.996,-1.077 1.08,-1.033 1.147,-0.968 C 1.198,-0.917 1.232,-0.86 1.254,-0.804 C 1.282,-0.737 1.292,-0.673 1.297,-0.627 C 1.299,-0.585 1.299,-0.56 1.299,-0.56 C 1.299,-0.56 1.299,-0.54 1.298,-0.509 C 1.297,-0.458 1.286,-0.374 1.245,-0.294 C 1.225,-0.255 1.198,-0.218 1.161,-0.182 C 1.117,-0.139 1.065,-0.104 1.007,-0.079 C 0.896,-0.03 0.769,-0.011 0.664,-0.005 C 0.617,-0.002 0.575,0 0.539,0 L 0,0 z "
           style="fill:#000000;fill-rule:evenodd;stroke:none" />
      </g>
      <path
         id="path3336"
         d="M 50.381,352.408 L 57.124,352.408 L 57.124,346.062 L 50.381,346.062 L 50.381,352.408 z M 52.149,351.519 L 52.149,346.947 L 53.87,346.947 C 53.87,346.947 54.71,346.926 55.173,347.388 C 55.549,347.765 55.523,348.202 55.523,348.202 C 55.523,348.202 55.549,348.656 55.2,349.007 C 54.902,349.303 54.523,349.384 54.523,349.384 C 54.523,349.384 54.694,349.462 54.827,349.595 C 54.888,349.656 55.108,349.855 55.108,350.336 C 55.108,350.821 54.785,351.1 54.785,351.1 C 54.785,351.1 54.431,351.519 53.633,351.519 L 52.149,351.519 z "
         style="fill:#000000;fill-rule:evenodd;stroke:none" />
      <g
         id="g3338"
         transform="translate(45.198807,348.89861)">
        <path
           id="path3340"
           d="M 0,0 L 0,-1.247 L 0.811,-1.247 C 0.811,-1.247 0.826,-1.245 0.852,-1.245 C 0.879,-1.244 0.919,-1.242 0.966,-1.239 C 1.054,-1.23 1.169,-1.214 1.281,-1.175 C 1.383,-1.143 1.481,-1.091 1.558,-1.015 C 1.587,-0.985 1.61,-0.955 1.63,-0.924 C 1.693,-0.824 1.709,-0.723 1.712,-0.666 C 1.716,-0.639 1.716,-0.626 1.716,-0.626 L 1.716,-0.595 C 1.712,-0.571 1.71,-0.525 1.698,-0.474 C 1.682,-0.415 1.654,-0.347 1.603,-0.283 C 1.595,-0.272 1.584,-0.26 1.573,-0.249 C 1.549,-0.227 1.526,-0.205 1.501,-0.185 C 1.455,-0.153 1.404,-0.125 1.35,-0.102 C 1.276,-0.069 1.195,-0.046 1.105,-0.03 C 1.061,-0.021 1.011,-0.013 0.962,-0.01 C 0.932,-0.005 0.9,-0.004 0.869,-0.002 C 0.841,0 0.812,0 0.783,0 L 0,0 z "
           style="fill:#000000;fill-rule:evenodd;stroke:none" />
      </g>
      <g
         id="g3342"
         transform="translate(45.198807,350.7961)">
        <path
           id="path3344"
           d="M 0,0 L 0,-1.182 L 0.393,-1.182 C 0.393,-1.182 0.419,-1.182 0.453,-1.182 C 0.48,-1.181 0.513,-1.18 0.541,-1.177 C 0.621,-1.171 0.735,-1.16 0.845,-1.13 C 0.867,-1.123 0.888,-1.116 0.911,-1.108 C 0.997,-1.077 1.082,-1.033 1.146,-0.968 C 1.198,-0.917 1.231,-0.86 1.256,-0.804 C 1.282,-0.737 1.293,-0.673 1.297,-0.627 C 1.301,-0.585 1.301,-0.56 1.301,-0.56 L 1.301,-0.509 C 1.295,-0.458 1.286,-0.374 1.246,-0.294 C 1.226,-0.255 1.198,-0.218 1.164,-0.182 C 1.118,-0.139 1.065,-0.104 1.007,-0.079 C 0.896,-0.03 0.771,-0.011 0.663,-0.005 C 0.618,-0.002 0.575,0 0.541,0 L 0,0 z "
           style="fill:#000000;fill-rule:evenodd;stroke:none" />
      </g>
      <path
         id="path3346"
         d="M 42.611,352.408 L 49.354,352.408 L 49.354,346.062 L 42.611,346.062 L 42.611,352.408 z M 44.38,351.519 L 44.38,346.947 L 46.101,346.947 C 46.101,346.947 46.94,346.926 47.402,347.388 C 47.779,347.765 47.753,348.202 47.753,348.202 C 47.753,348.202 47.779,348.656 47.43,349.007 C 47.132,349.303 46.753,349.384 46.753,349.384 C 46.753,349.384 46.925,349.462 47.056,349.595 C 47.118,349.656 47.338,349.855 47.338,350.336 C 47.338,350.821 47.015,351.1 47.015,351.1 C 47.015,351.1 46.662,351.519 45.865,351.519 L 44.38,351.519 z "
         style="fill:#000000;fill-rule:evenodd;stroke:none" />
      <g
         id="g3348"
         transform="translate(43.363693,343.84331)">
        <path
           id="path3350"
           d="M 0,0 L 0.486,0 C 1.215,0 1.509,-0.299 1.516,-0.792 C 1.523,-1.231 1.293,-1.646 0.486,-1.646 L 0,-1.646 L 0,0 z M -0.753,0.647 L -0.753,-4.599 L 0,-4.599 L 0,-2.322 L 0.315,-2.322 C 0.702,-2.322 1.015,-2.446 1.709,-3.523 L 2.401,-4.599 L 3.3,-4.599 C 2.939,-4.101 2.808,-3.923 2.584,-3.561 C 2.185,-2.908 1.892,-2.423 1.415,-2.109 C 1.977,-1.884 2.292,-1.431 2.292,-0.822 C 2.292,0.085 1.631,0.647 0.57,0.647 L -0.753,0.647 z "
           style="fill:#000000;fill-rule:evenodd;stroke:none" />
      </g>
      <g
         id="g3352"
         transform="translate(49.128601,343.3658)">
        <path
           id="path3354"
           d="M 0,0 L 0.847,-1.899 L -0.785,-1.899 L 0,0 z M 0.276,1.154 L -0.254,1.154 L -2.508,-4.121 L -1.74,-4.121 L -1.077,-2.577 L 1.153,-2.577 L 1.853,-4.121 L 2.622,-4.121 L 0.276,1.154 z "
           style="fill:#000000;fill-rule:evenodd;stroke:none" />
      </g>
      <g
         id="g3356"
         transform="translate(53.130997,343.81261)">
        <path
           id="path3358"
           d="M 0,0 L 1.159,0 C 2.63,0 3.299,-0.892 3.299,-1.946 C 3.299,-2.592 2.907,-3.892 1.2,-3.892 L 0,-3.892 L 0,0 z M -0.754,-4.568 L 1.291,-4.568 C 3.023,-4.568 4.075,-3.292 4.075,-1.946 C 4.075,-0.708 3.221,0.678 1.284,0.678 L -0.754,0.678 L -0.754,-4.568 z "
           style="fill:#000000;fill-rule:evenodd;stroke:none" />
      </g>
      <path
         id="path3360"
         d="M 58.075,344.49 L 58.828,344.49 L 58.828,339.244 L 58.075,339.244 L 58.075,344.49 z "
         style="fill:#000000;fill-rule:evenodd;stroke:none" />
      <g
         id="g3362"
         transform="translate(60.474503,341.8662)">
        <path
           id="path3364"
           d="M 0,0 C 0,1.155 0.87,1.999 2.038,1.999 C 3.216,1.999 4.085,1.155 4.085,0 C 4.085,-1.146 3.216,-2 2.038,-2 C 0.87,-2 0,-1.146 0,0 M -0.777,0 C -0.777,-1.423 0.309,-2.691 2.023,-2.691 C 3.8,-2.691 4.861,-1.414 4.861,0 C 4.861,1.461 3.77,2.692 2.038,2.692 C 0.338,2.692 -0.777,1.454 -0.777,0"
           style="fill:#000000;fill-rule:evenodd;stroke:none" />
      </g>
      <g
         id="g3366"
         transform="translate(89.533401,325.6483)">
        <path
           id="path3368"
           d="M 0,0 L -5.855,0 L -5.855,15.914 L -8.358,15.914 L -4.902,22.327 L 0,22.327 L 0,0 z M -3.059,27.785 C -12.24,27.785 -19.683,20.338 -19.683,11.151 C -19.683,1.964 -12.24,-5.482 -3.059,-5.482 C 6.124,-5.482 13.566,1.964 13.566,11.151 C 13.566,20.338 6.124,27.785 -3.059,27.785"
           style="fill:#000000;fill-rule:nonzero;stroke:none" />
      </g>
    </g>
    <g
       id="g3612"
       transform="matrix(1,0,0,-1,11.31037,698.56792)" />
  </g>
</svg>
