<?xml version="1.0" encoding="UTF-8" standalone="no"?>
<!-- Created with Inkscape (http://www.inkscape.org/) -->
<svg
   xmlns:dc="http://purl.org/dc/elements/1.1/"
   xmlns:cc="http://web.resource.org/cc/"
   xmlns:rdf="http://www.w3.org/1999/02/22-rdf-syntax-ns#"
   xmlns:svg="http://www.w3.org/2000/svg"
   xmlns="http://www.w3.org/2000/svg"
   xmlns:xlink="http://www.w3.org/1999/xlink"
   xmlns:sodipodi="http://sodipodi.sourceforge.net/DTD/sodipodi-0.dtd"
   xmlns:inkscape="http://www.inkscape.org/namespaces/inkscape"
   width="268"
   height="110"
   id="svg2"
   sodipodi:version="0.32"
   inkscape:version="0.45.1"
   version="1.0"
   inkscape:output_extension="org.inkscape.output.svg.inkscape">
  <g
     inkscape:label="Layer 1"
     inkscape:groupmode="layer"
     id="layer1"
     transform="translate(-331.65807,-467.92376)">
    <g
       id="g2822"
       transform="matrix(1,0,0,-1,207.74489,417.97292)" />
    <g
       id="g3546"
       clip-path="url(#id204)"
       transform="matrix(3.3055854,0,0,-3.3055854,-508.48007,1507.4689)">
      <path
         id="path3548"
         d="M 269.835,313.455 L 276.578,313.455 L 276.578,307.109 L 269.835,307.109 L 269.835,313.455 z M 274.084,312.571 C 274.055,312.578 274.024,312.582 273.993,312.588 L 273.957,312.592 C 273.905,312.6 273.854,312.605 273.801,312.61 C 273.764,312.615 273.728,312.616 273.693,312.618 C 273.628,312.622 273.566,312.624 273.506,312.624 C 273.479,312.624 273.461,312.624 273.434,312.624 C 273.382,312.622 273.333,312.619 273.285,312.616 C 273.257,312.615 273.229,312.613 273.203,312.61 C 273.162,312.607 273.123,312.603 273.084,312.597 L 273.051,312.594 L 273.013,312.588 L 272.969,312.58 C 272.95,312.578 272.931,312.574 272.912,312.57 C 272.885,312.566 272.858,312.56 272.833,312.555 C 272.673,312.52 272.525,312.476 272.389,312.424 C 272.319,312.395 272.25,312.365 272.187,312.334 C 272.132,312.307 272.082,312.28 272.031,312.251 C 271.983,312.224 271.938,312.196 271.893,312.167 C 271.868,312.148 271.843,312.133 271.817,312.114 C 271.796,312.099 271.776,312.085 271.756,312.069 C 271.713,312.037 271.671,312.002 271.632,311.968 C 271.597,311.936 271.562,311.904 271.529,311.872 C 271.501,311.845 271.471,311.816 271.447,311.783 C 271.418,311.754 271.391,311.723 271.366,311.691 C 271.336,311.657 271.312,311.622 271.286,311.586 C 271.264,311.558 271.246,311.531 271.227,311.502 C 271.214,311.483 271.203,311.464 271.192,311.444 C 271.12,311.33 271.06,311.207 271.008,311.076 C 270.945,310.912 270.9,310.735 270.874,310.549 C 270.868,310.489 270.862,310.43 270.857,310.367 C 270.854,310.321 270.853,310.273 270.853,310.225 C 270.853,310.188 270.853,310.153 270.854,310.118 C 270.857,310.082 270.862,310.045 270.866,310.009 L 270.868,309.983 C 270.873,309.94 270.88,309.897 270.888,309.857 C 270.892,309.84 270.895,309.825 270.898,309.807 C 270.905,309.773 270.914,309.739 270.921,309.705 C 270.934,309.662 270.946,309.619 270.961,309.577 C 270.978,309.525 270.997,309.475 271.017,309.426 C 271.05,309.349 271.086,309.274 271.123,309.204 C 271.146,309.163 271.169,309.123 271.193,309.083 C 271.213,309.053 271.232,309.023 271.251,308.995 C 271.277,308.956 271.305,308.92 271.333,308.885 C 271.36,308.848 271.391,308.814 271.421,308.78 C 271.456,308.74 271.491,308.701 271.527,308.667 L 271.544,308.648 C 271.575,308.621 271.605,308.589 271.642,308.558 C 271.666,308.539 271.692,308.516 271.72,308.494 C 271.745,308.475 271.773,308.453 271.801,308.433 C 271.836,308.407 271.869,308.384 271.908,308.359 C 271.95,308.336 271.992,308.308 272.036,308.282 C 272.125,308.233 272.223,308.184 272.332,308.141 C 272.372,308.124 272.414,308.11 272.458,308.095 C 272.5,308.08 272.544,308.066 272.589,308.053 C 272.668,308.032 272.75,308.012 272.834,307.995 C 272.903,307.981 272.977,307.97 273.051,307.962 C 273.124,307.952 273.2,307.945 273.278,307.942 C 273.318,307.939 273.357,307.939 273.395,307.936 L 273.451,307.936 C 273.593,307.936 273.724,307.942 273.845,307.952 L 273.869,307.954 C 273.918,307.958 273.963,307.964 274.009,307.97 C 274.08,307.977 274.144,307.987 274.207,308 C 274.247,308.006 274.285,308.015 274.323,308.022 C 274.382,308.035 274.437,308.049 274.489,308.062 C 274.528,308.072 274.566,308.083 274.603,308.095 C 274.647,308.107 274.687,308.121 274.727,308.135 L 274.765,308.148 C 274.785,308.155 274.811,308.165 274.841,308.176 C 274.882,308.192 274.93,308.211 274.986,308.236 C 275.02,308.25 275.057,308.266 275.094,308.282 C 275.125,308.298 275.161,308.316 275.197,308.331 C 275.21,308.339 275.226,308.346 275.241,308.352 L 275.241,309.22 C 275.23,309.212 275.219,309.205 275.209,309.2 L 275.15,309.165 C 275.091,309.128 275.034,309.095 274.977,309.062 C 274.915,309.03 274.851,308.998 274.79,308.968 C 274.684,308.917 274.581,308.875 274.482,308.84 C 274.293,308.772 274.12,308.731 273.968,308.702 C 273.949,308.7 273.931,308.696 273.914,308.694 C 273.871,308.688 273.832,308.682 273.792,308.678 C 273.733,308.672 273.676,308.668 273.627,308.666 C 273.593,308.665 273.564,308.663 273.534,308.663 C 273.473,308.663 273.41,308.665 273.344,308.67 C 273.269,308.675 273.194,308.684 273.115,308.696 C 272.99,308.718 272.864,308.75 272.743,308.794 C 272.724,308.8 272.706,308.807 272.688,308.816 C 272.676,308.819 272.664,308.824 272.651,308.829 C 272.632,308.838 272.613,308.846 272.592,308.855 C 272.55,308.875 272.508,308.897 272.466,308.921 C 272.447,308.932 272.428,308.945 272.406,308.956 C 272.387,308.97 272.365,308.983 272.344,308.999 C 272.321,309.015 272.294,309.033 272.272,309.052 C 272.247,309.071 272.223,309.091 272.202,309.108 L 272.174,309.134 L 272.16,309.147 L 272.151,309.155 L 272.14,309.165 C 272.101,309.203 272.066,309.243 272.032,309.282 C 272.016,309.303 271.998,309.326 271.981,309.348 C 271.966,309.369 271.952,309.39 271.938,309.412 C 271.924,309.432 271.911,309.453 271.9,309.474 C 271.882,309.503 271.865,309.534 271.849,309.565 C 271.838,309.59 271.826,309.617 271.816,309.642 C 271.796,309.685 271.781,309.729 271.768,309.771 C 271.757,309.802 271.748,309.837 271.739,309.868 C 271.718,309.956 271.707,310.039 271.699,310.11 C 271.695,310.137 271.695,310.163 271.693,310.186 C 271.692,310.22 271.692,310.25 271.692,310.274 L 271.692,310.328 C 271.693,310.378 271.699,310.441 271.708,310.512 C 271.715,310.556 271.724,310.602 271.736,310.651 C 271.743,310.683 271.752,310.715 271.762,310.75 C 271.773,310.78 271.783,310.811 271.796,310.844 C 271.803,310.865 271.812,310.886 271.822,310.908 C 271.835,310.937 271.849,310.966 271.864,310.995 C 271.875,311.018 271.888,311.041 271.902,311.063 C 271.929,311.112 271.962,311.161 271.998,311.209 C 272.011,311.227 272.025,311.245 272.038,311.262 C 272.057,311.284 272.077,311.307 272.097,311.329 C 272.108,311.339 272.118,311.35 272.129,311.362 C 272.288,311.52 272.466,311.639 272.649,311.722 C 272.679,311.735 272.708,311.748 272.737,311.759 C 272.767,311.77 272.795,311.781 272.825,311.791 C 272.856,311.802 272.889,311.811 272.921,311.82 C 272.951,311.83 272.983,311.837 273.013,311.845 C 273.044,311.852 273.075,311.857 273.105,311.863 C 273.137,311.869 273.17,311.874 273.204,311.878 C 273.238,311.882 273.27,311.886 273.304,311.888 C 273.368,311.894 273.428,311.897 273.488,311.897 C 273.511,311.897 273.53,311.897 273.55,311.896 C 273.595,311.895 273.637,311.894 273.68,311.892 C 273.711,311.888 273.74,311.888 273.769,311.885 C 273.821,311.879 273.876,311.873 273.925,311.865 C 273.969,311.858 274.013,311.852 274.053,311.845 C 274.114,311.831 274.171,311.817 274.224,311.803 C 274.256,311.796 274.285,311.786 274.313,311.778 C 274.355,311.764 274.391,311.754 274.419,311.745 C 274.466,311.727 274.494,311.719 274.494,311.719 C 274.536,311.703 274.579,311.685 274.619,311.67 C 274.675,311.647 274.727,311.624 274.777,311.601 C 274.819,311.582 274.858,311.562 274.896,311.545 C 274.927,311.529 274.956,311.514 274.983,311.5 C 275.03,311.476 275.07,311.453 275.103,311.436 L 275.192,311.387 L 275.192,312.238 C 275.192,312.238 275.138,312.259 275.047,312.294 C 275.006,312.309 274.958,312.326 274.903,312.346 C 274.873,312.357 274.841,312.368 274.807,312.38 C 274.781,312.388 274.754,312.399 274.724,312.407 C 274.692,312.418 274.66,312.43 274.625,312.44 C 274.599,312.447 274.574,312.456 274.547,312.463 L 274.524,312.47 C 274.499,312.477 274.473,312.483 274.449,312.491 C 274.417,312.498 274.385,312.508 274.354,312.516 C 274.334,312.52 274.312,312.523 274.292,312.529 C 274.258,312.537 274.225,312.545 274.19,312.552 C 274.155,312.559 274.12,312.566 274.084,312.571"
         style="fill:#000000;fill-rule:evenodd;stroke:none" />
      <g
         id="g3550"
         transform="translate(264.6543,309.94611)">
        <path
           id="path3552"
           d="M 0,0 L 0,-1.246 L 0.809,-1.246 C 0.809,-1.246 0.826,-1.245 0.85,-1.245 C 0.878,-1.244 0.917,-1.242 0.965,-1.239 C 1.051,-1.23 1.168,-1.214 1.281,-1.175 C 1.382,-1.143 1.48,-1.091 1.556,-1.015 C 1.586,-0.985 1.61,-0.955 1.63,-0.924 C 1.692,-0.824 1.708,-0.723 1.712,-0.666 C 1.714,-0.639 1.714,-0.626 1.714,-0.626 C 1.714,-0.626 1.714,-0.614 1.714,-0.595 C 1.714,-0.571 1.71,-0.525 1.698,-0.474 C 1.682,-0.415 1.655,-0.347 1.604,-0.283 C 1.593,-0.272 1.582,-0.26 1.571,-0.249 C 1.549,-0.227 1.524,-0.205 1.498,-0.185 C 1.453,-0.153 1.403,-0.125 1.348,-0.102 C 1.275,-0.069 1.194,-0.046 1.103,-0.03 C 1.06,-0.021 1.009,-0.013 0.961,-0.01 C 0.929,-0.005 0.9,-0.004 0.867,-0.002 C 0.839,0 0.811,0 0.781,0 L 0,0 z "
           style="fill:#000000;fill-rule:evenodd;stroke:none" />
      </g>
      <g
         id="g3554"
         transform="translate(264.6543,311.8437)">
        <path
           id="path3556"
           d="M 0,0 L 0,-1.182 L 0.391,-1.182 C 0.391,-1.182 0.417,-1.182 0.452,-1.182 C 0.481,-1.181 0.511,-1.18 0.54,-1.177 C 0.62,-1.171 0.733,-1.16 0.843,-1.13 C 0.867,-1.123 0.889,-1.116 0.908,-1.108 C 0.996,-1.077 1.08,-1.033 1.147,-0.968 C 1.198,-0.917 1.232,-0.86 1.254,-0.804 C 1.282,-0.737 1.292,-0.673 1.297,-0.627 C 1.299,-0.585 1.299,-0.56 1.299,-0.56 C 1.299,-0.56 1.299,-0.54 1.298,-0.509 C 1.297,-0.458 1.286,-0.374 1.245,-0.294 C 1.225,-0.255 1.198,-0.218 1.161,-0.182 C 1.117,-0.139 1.065,-0.104 1.007,-0.079 C 0.896,-0.03 0.769,-0.011 0.664,-0.005 C 0.617,-0.002 0.575,0 0.539,0 L 0,0 z "
           style="fill:#000000;fill-rule:evenodd;stroke:none" />
      </g>
      <path
         id="path3558"
         d="M 262.066,313.455 L 268.809,313.455 L 268.809,307.109 L 262.066,307.109 L 262.066,313.455 z M 263.834,312.566 L 263.834,307.995 L 265.556,307.995 C 265.556,307.995 266.396,307.973 266.858,308.435 C 267.235,308.813 267.208,309.249 267.208,309.249 C 267.208,309.249 267.235,309.704 266.886,310.054 C 266.587,310.351 266.208,310.431 266.208,310.431 C 266.208,310.431 266.38,310.51 266.513,310.642 C 266.573,310.704 266.793,310.902 266.793,311.384 C 266.793,311.869 266.471,312.148 266.471,312.148 C 266.471,312.148 266.116,312.566 265.319,312.566 L 263.834,312.566 z "
         style="fill:#000000;fill-rule:evenodd;stroke:none" />
      <g
         id="g3560"
         transform="translate(256.884,309.94611)">
        <path
           id="path3562"
           d="M 0,0 L 0,-1.246 L 0.811,-1.246 C 0.811,-1.246 0.826,-1.245 0.852,-1.245 C 0.879,-1.244 0.919,-1.242 0.966,-1.239 C 1.054,-1.23 1.169,-1.214 1.281,-1.175 C 1.383,-1.143 1.481,-1.091 1.558,-1.015 C 1.587,-0.985 1.61,-0.955 1.63,-0.924 C 1.693,-0.824 1.709,-0.723 1.712,-0.666 C 1.716,-0.639 1.716,-0.626 1.716,-0.626 L 1.716,-0.595 C 1.712,-0.571 1.71,-0.525 1.698,-0.474 C 1.682,-0.415 1.654,-0.347 1.603,-0.283 C 1.595,-0.272 1.584,-0.26 1.573,-0.249 C 1.549,-0.227 1.526,-0.205 1.501,-0.185 C 1.455,-0.153 1.404,-0.125 1.35,-0.102 C 1.276,-0.069 1.195,-0.046 1.105,-0.03 C 1.061,-0.021 1.011,-0.013 0.962,-0.01 C 0.932,-0.005 0.9,-0.004 0.869,-0.002 C 0.841,0 0.812,0 0.783,0 L 0,0 z "
           style="fill:#000000;fill-rule:evenodd;stroke:none" />
      </g>
      <g
         id="g3564"
         transform="translate(256.884,311.8437)">
        <path
           id="path3566"
           d="M 0,0 L 0,-1.182 L 0.393,-1.182 C 0.393,-1.182 0.419,-1.182 0.453,-1.182 C 0.48,-1.181 0.513,-1.18 0.541,-1.177 C 0.621,-1.171 0.735,-1.16 0.845,-1.13 C 0.867,-1.123 0.888,-1.116 0.911,-1.108 C 0.997,-1.077 1.082,-1.033 1.146,-0.968 C 1.198,-0.917 1.231,-0.86 1.256,-0.804 C 1.282,-0.737 1.293,-0.673 1.297,-0.627 C 1.301,-0.585 1.301,-0.56 1.301,-0.56 L 1.301,-0.509 C 1.295,-0.458 1.286,-0.374 1.246,-0.294 C 1.226,-0.255 1.198,-0.218 1.164,-0.182 C 1.118,-0.139 1.065,-0.104 1.007,-0.079 C 0.896,-0.03 0.771,-0.011 0.663,-0.005 C 0.618,-0.002 0.575,0 0.541,0 L 0,0 z "
           style="fill:#000000;fill-rule:evenodd;stroke:none" />
      </g>
      <path
         id="path3568"
         d="M 254.296,313.455 L 261.039,313.455 L 261.039,307.109 L 254.296,307.109 L 254.296,313.455 z M 256.066,312.566 L 256.066,307.995 L 257.786,307.995 C 257.786,307.995 258.625,307.973 259.088,308.435 C 259.465,308.813 259.439,309.249 259.439,309.249 C 259.439,309.249 259.465,309.704 259.116,310.054 C 258.817,310.351 258.439,310.431 258.439,310.431 C 258.439,310.431 258.61,310.51 258.742,310.642 C 258.804,310.704 259.024,310.902 259.024,311.384 C 259.024,311.869 258.7,312.148 258.7,312.148 C 258.7,312.148 258.348,312.566 257.55,312.566 L 256.066,312.566 z "
         style="fill:#000000;fill-rule:evenodd;stroke:none" />
      <g
         id="g3570"
         transform="translate(255.049,304.89079)">
        <path
           id="path3572"
           d="M 0,0 L 0.486,0 C 1.215,0 1.509,-0.299 1.516,-0.792 C 1.523,-1.231 1.293,-1.646 0.486,-1.646 L 0,-1.646 L 0,0 z M -0.753,0.647 L -0.753,-4.599 L 0,-4.599 L 0,-2.322 L 0.315,-2.322 C 0.702,-2.322 1.015,-2.446 1.709,-3.523 L 2.401,-4.599 L 3.3,-4.599 C 2.939,-4.101 2.808,-3.923 2.584,-3.561 C 2.185,-2.908 1.892,-2.423 1.415,-2.109 C 1.977,-1.884 2.292,-1.431 2.292,-0.822 C 2.292,0.085 1.631,0.647 0.57,0.647 L -0.753,0.647 z "
           style="fill:#000000;fill-rule:evenodd;stroke:none" />
      </g>
      <g
         id="g3574"
         transform="translate(260.8138,304.4133)">
        <path
           id="path3576"
           d="M 0,0 L 0.847,-1.899 L -0.785,-1.899 L 0,0 z M 0.276,1.154 L -0.254,1.154 L -2.508,-4.121 L -1.74,-4.121 L -1.077,-2.577 L 1.153,-2.577 L 1.853,-4.121 L 2.622,-4.121 L 0.276,1.154 z "
           style="fill:#000000;fill-rule:evenodd;stroke:none" />
      </g>
      <g
         id="g3578"
         transform="translate(264.8163,304.86011)">
        <path
           id="path3580"
           d="M 0,0 L 1.159,0 C 2.63,0 3.299,-0.892 3.299,-1.946 C 3.299,-2.592 2.907,-3.892 1.2,-3.892 L 0,-3.892 L 0,0 z M -0.754,-4.568 L 1.291,-4.568 C 3.023,-4.568 4.074,-3.292 4.074,-1.946 C 4.074,-0.708 3.221,0.678 1.284,0.678 L -0.754,0.678 L -0.754,-4.568 z "
           style="fill:#000000;fill-rule:evenodd;stroke:none" />
      </g>
      <path
         id="path3582"
         d="M 269.76,305.538 L 270.513,305.538 L 270.513,300.292 L 269.76,300.292 L 269.76,305.538 z "
         style="fill:#000000;fill-rule:evenodd;stroke:none" />
      <g
         id="g3584"
         transform="translate(272.1597,302.9138)">
        <path
           id="path3586"
           d="M 0,0 C 0,1.155 0.87,1.999 2.038,1.999 C 3.216,1.999 4.085,1.155 4.085,0 C 4.085,-1.146 3.216,-2 2.038,-2 C 0.87,-2 0,-1.146 0,0 M -0.777,0 C -0.777,-1.423 0.309,-2.691 2.023,-2.691 C 3.8,-2.691 4.861,-1.414 4.861,0 C 4.861,1.461 3.77,2.692 2.038,2.692 C 0.338,2.692 -0.777,1.454 -0.777,0"
           style="fill:#000000;fill-rule:evenodd;stroke:none" />
      </g>
      <g
         id="g3588"
         transform="translate(320.14819,292.5506)">
        <path
           id="path3590"
           d="M 0,0 C -0.009,-0.289 -0.02,-0.556 -0.36,-0.763 C -0.598,-0.896 -0.813,-0.896 -0.906,-0.896 C -1.225,-0.896 -1.443,-0.752 -1.534,-0.63 C -1.658,-0.463 -1.658,-0.227 -1.658,0.01 L -1.658,3.351 L -3.256,3.351 L -3.256,-0.031 C -3.256,-0.907 -3.205,-1.225 -2.928,-1.618 C -2.554,-2.134 -1.907,-2.185 -1.556,-2.185 C -1.206,-2.185 -0.854,-2.102 -0.535,-1.939 C -0.247,-1.794 -0.153,-1.691 0,-1.515 L 0,-2.031 L 1.588,-2.031 L 1.588,3.351 L 0,3.351 L 0,0 z "
           style="fill:#008081;fill-rule:nonzero;stroke:none" />
      </g>
      <g
         id="g3592"
         transform="translate(325.0856,294.03619)">
        <path
           id="path3594"
           d="M 0,0 C -0.516,0.092 -0.856,0.154 -0.856,0.464 C -0.856,0.617 -0.711,0.866 -0.093,0.866 C 0.279,0.866 0.753,0.721 1.257,0.33 L 2.236,1.235 C 1.866,1.494 1.102,2.04 -0.165,2.04 C -1.669,2.04 -2.433,1.123 -2.433,0.237 C -2.433,-0.166 -2.267,-0.537 -2.03,-0.774 C -1.794,-1.011 -1.463,-1.145 -1.134,-1.238 C -0.897,-1.311 -0.649,-1.362 -0.412,-1.403 C -0.103,-1.455 0.268,-1.485 0.505,-1.609 C 0.598,-1.662 0.71,-1.733 0.71,-1.919 C 0.71,-2.32 0.133,-2.444 -0.246,-2.444 C -0.845,-2.444 -1.381,-2.125 -1.815,-1.701 L -2.814,-2.609 C -2.474,-2.929 -1.701,-3.65 -0.206,-3.65 C 1.062,-3.65 2.339,-3.032 2.339,-1.765 C 2.339,-0.485 1.082,-0.197 0,0"
           style="fill:#008081;fill-rule:nonzero;stroke:none" />
      </g>
      <path
         id="path3596"
         d="M 327.871,290.52 L 329.439,290.52 L 329.439,295.911 L 327.871,295.911 L 327.871,290.52 z "
         style="fill:#008081;fill-rule:nonzero;stroke:none" />
      <path
         id="path3598"
         d="M 327.871,296.582 L 329.439,296.582 L 329.439,297.808 L 327.871,297.808 L 327.871,296.582 z "
         style="fill:#008081;fill-rule:nonzero;stroke:none" />
      <g
         id="g3600"
         transform="translate(333.66119,291.9734)">
        <path
           id="path3602"
           d="M 0,0 C -0.331,-0.37 -0.722,-0.37 -0.805,-0.37 C -1.65,-0.37 -2,0.526 -2,1.237 C -2,1.886 -1.712,2.866 -0.856,2.866 C -0.609,2.866 -0.413,2.783 -0.259,2.68 C 0,2.494 0.102,2.309 0.195,2.114 L 1.371,2.783 C 0.69,3.908 -0.331,4.072 -0.929,4.072 C -2.723,4.072 -3.63,2.753 -3.63,1.186 C -3.63,-1.01 -1.991,-1.629 -0.96,-1.629 C -0.351,-1.629 0.173,-1.432 0.586,-1.145 C 1.02,-0.834 1.235,-0.495 1.432,-0.186 L 0.237,0.433 C 0.184,0.279 0.132,0.155 0,0"
           style="fill:#008081;fill-rule:nonzero;stroke:none" />
      </g>
      <g
         id="g3604"
         transform="translate(313.01579,295.1194)">
        <path
           id="path3606"
           d="M 0,0 C -0.289,0.299 -0.346,0.916 -1.418,0.916 C -2.346,0.916 -2.759,0.431 -2.944,0.215 L -2.944,0.771 L -4.511,0.771 L -4.511,-4.6 L -2.944,-4.6 L -2.944,-1.537 C -2.944,-1.167 -2.934,-0.733 -2.583,-0.497 C -2.438,-0.403 -2.275,-0.373 -2.151,-0.373 C -1.892,-0.373 -1.655,-0.486 -1.531,-0.651 C -1.388,-0.857 -1.378,-1.178 -1.378,-1.414 L -1.378,-4.6 L 0.189,-4.6 L 0.189,-1.671 C 0.189,-1.083 0.189,-0.775 0.489,-0.538 C 0.643,-0.414 0.85,-0.373 1.004,-0.373 C 1.127,-0.373 1.55,-0.403 1.694,-0.857 C 1.756,-1.062 1.756,-1.466 1.756,-1.775 L 1.756,-4.6 L 3.323,-4.6 L 3.323,-1.093 C 3.323,-0.517 3.313,-0.147 3.179,0.142 C 3.014,0.473 2.56,0.901 1.675,0.916 C 0.533,0.932 0.309,0.258 0,0"
           style="fill:#008081;fill-rule:nonzero;stroke:none" />
      </g>
      <g
         id="g3608"
         transform="translate(298.1736,281.2048)">
        <path
           id="path3610"
           d="M 0,0 C 5.763,0 11.038,2.927 14.108,7.827 C 14.109,7.828 14.109,7.829 14.111,7.83 L 14.111,7.83 L 14.111,7.831 C 14.128,7.857 14.134,7.886 14.134,7.915 C 14.134,7.968 14.109,8.02 14.061,8.049 C 13.987,8.096 13.89,8.075 13.843,8 C 11.094,3.675 5.66,0.879 0,0.879 C -8.689,0.879 -15.759,7.948 -15.759,16.638 C -15.759,24.844 -9.453,31.602 -1.435,32.329 L -8.739,19.669 C -10.939,15.234 -9.349,9.799 -5.002,7.287 C -0.477,4.675 5.305,6.225 7.919,10.749 C 10.531,15.273 8.98,21.058 4.457,23.671 C 3.068,24.471 1.563,24.876 0.068,24.928 L 4.074,31.875 C 10.902,30.097 16.241,23.96 16.241,16.682 C 16.241,16.594 16.311,16.523 16.399,16.523 C 16.487,16.523 16.558,16.594 16.558,16.682 L 16.558,16.776 C 16.558,26.029 9.123,33.276 0,33.276 C -9.174,33.276 -16.639,25.812 -16.639,16.638 C -16.639,7.464 -9.174,0 0,0 M 1.752,18.986 C 3.69,17.869 4.352,15.393 3.236,13.454 C 2.117,11.516 -0.36,10.852 -2.296,11.972 C -4.235,13.089 -4.899,15.566 -3.78,17.504 C -2.662,19.441 -0.185,20.105 1.752,18.986"
           style="fill:#008081;fill-rule:nonzero;stroke:none" />
      </g>
    </g>
    <g
       id="g3612"
       transform="matrix(1,0,0,-1,119.88179,344.28221)" />
  </g>
</svg>
