<?xml version="1.0" encoding="UTF-8" standalone="no"?>
<!-- Created with Inkscape (http://www.inkscape.org/) -->
<svg
   xmlns:dc="http://purl.org/dc/elements/1.1/"
   xmlns:cc="http://web.resource.org/cc/"
   xmlns:rdf="http://www.w3.org/1999/02/22-rdf-syntax-ns#"
   xmlns:svg="http://www.w3.org/2000/svg"
   xmlns="http://www.w3.org/2000/svg"
   xmlns:sodipodi="http://sodipodi.sourceforge.net/DTD/sodipodi-0.dtd"
   xmlns:inkscape="http://www.inkscape.org/namespaces/inkscape"
   width="200"
   height="110"
   id="svg2"
   sodipodi:version="0.32"
   inkscape:version="0.45.1"
   version="1.0"
   inkscape:output_extension="org.inkscape.output.svg.inkscape">
  <g
     inkscape:label="Layer 1"
     inkscape:groupmode="layer"
     id="layer1"
     transform="translate(-24.353825,-903.15723)">
    <g
       id="g4192"
       clip-path="url(#id288)"
       transform="matrix(5.3208895,0,0,-5.3208895,-829.77132,3812.3376)">
      <path
         id="path4194"
         d="M 170.18,546.109 L 174.37,546.109 L 174.37,542.166 L 170.18,542.166 L 170.18,546.109 z M 172.82,545.56 C 172.802,545.564 172.782,545.566 172.764,545.57 L 172.741,545.573 C 172.709,545.578 172.677,545.581 172.644,545.584 C 172.621,545.587 172.599,545.588 172.577,545.589 C 172.536,545.592 172.498,545.593 172.461,545.593 C 172.443,545.593 172.433,545.593 172.416,545.593 C 172.384,545.592 172.353,545.59 172.323,545.588 C 172.306,545.587 172.289,545.586 172.272,545.584 C 172.247,545.582 172.223,545.58 172.198,545.576 L 172.178,545.574 L 172.154,545.57 L 172.127,545.565 C 172.115,545.564 172.103,545.562 172.092,545.559 C 172.074,545.557 172.058,545.553 172.043,545.55 C 171.943,545.528 171.851,545.501 171.767,545.468 C 171.723,545.451 171.68,545.432 171.641,545.413 C 171.607,545.396 171.576,545.379 171.544,545.361 C 171.515,545.344 171.486,545.327 171.458,545.309 C 171.443,545.297 171.427,545.288 171.411,545.276 C 171.398,545.266 171.386,545.258 171.373,545.248 C 171.346,545.228 171.321,545.206 171.296,545.185 C 171.274,545.165 171.253,545.145 171.232,545.125 C 171.215,545.109 171.196,545.091 171.181,545.07 C 171.163,545.052 171.146,545.033 171.131,545.013 C 171.112,544.992 171.097,544.97 171.081,544.948 C 171.067,544.931 171.056,544.914 171.045,544.896 C 171.036,544.884 171.029,544.872 171.023,544.86 C 170.978,544.789 170.941,544.712 170.908,544.631 C 170.869,544.529 170.841,544.419 170.825,544.304 C 170.821,544.266 170.818,544.229 170.815,544.191 C 170.813,544.162 170.812,544.132 170.812,544.102 C 170.812,544.079 170.812,544.057 170.813,544.036 C 170.815,544.013 170.818,543.99 170.82,543.968 L 170.821,543.952 C 170.825,543.925 170.829,543.898 170.834,543.873 C 170.836,543.863 170.838,543.853 170.84,543.843 C 170.844,543.821 170.85,543.8 170.854,543.779 C 170.862,543.752 170.87,543.726 170.879,543.699 C 170.89,543.667 170.902,543.636 170.914,543.606 C 170.934,543.557 170.957,543.511 170.98,543.467 C 170.994,543.442 171.009,543.417 171.023,543.392 C 171.036,543.374 171.048,543.355 171.06,543.337 C 171.076,543.313 171.093,543.291 171.11,543.269 C 171.127,543.246 171.146,543.226 171.165,543.204 C 171.186,543.179 171.209,543.155 171.231,543.134 L 171.241,543.122 C 171.261,543.105 171.28,543.086 171.302,543.066 C 171.317,543.054 171.333,543.04 171.351,543.027 C 171.366,543.014 171.384,543.001 171.401,542.988 C 171.423,542.973 171.444,542.958 171.467,542.943 C 171.494,542.928 171.52,542.911 171.547,542.895 C 171.602,542.864 171.664,542.834 171.731,542.807 C 171.756,542.797 171.782,542.788 171.809,542.779 C 171.836,542.769 171.863,542.761 171.891,542.752 C 171.94,542.739 171.991,542.727 172.043,542.716 C 172.086,542.708 172.132,542.701 172.178,542.696 C 172.223,542.69 172.271,542.685 172.319,542.683 C 172.344,542.682 172.368,542.682 172.392,542.68 L 172.427,542.68 C 172.515,542.68 172.596,542.684 172.671,542.69 L 172.686,542.691 C 172.717,542.693 172.745,542.697 172.773,542.701 C 172.817,542.706 172.857,542.712 172.896,542.719 C 172.921,542.723 172.945,542.729 172.968,542.733 C 173.005,542.741 173.039,542.75 173.072,542.758 C 173.096,542.764 173.119,542.771 173.142,542.778 C 173.169,542.786 173.194,542.795 173.219,542.804 L 173.243,542.811 C 173.255,542.816 173.271,542.822 173.29,542.829 C 173.315,542.839 173.346,542.851 173.38,542.866 C 173.402,542.875 173.424,542.885 173.447,542.895 C 173.466,542.905 173.489,542.916 173.511,542.925 C 173.519,542.93 173.529,542.935 173.539,542.938 L 173.539,543.477 C 173.532,543.473 173.525,543.468 173.519,543.465 L 173.482,543.443 C 173.445,543.42 173.41,543.4 173.375,543.38 C 173.336,543.359 173.297,543.34 173.258,543.321 C 173.193,543.289 173.128,543.263 173.067,543.241 C 172.95,543.199 172.842,543.174 172.748,543.156 C 172.736,543.154 172.725,543.152 172.714,543.151 C 172.688,543.147 172.663,543.143 172.638,543.141 C 172.601,543.137 172.566,543.135 172.536,543.133 C 172.515,543.133 172.497,543.131 172.478,543.131 C 172.44,543.131 172.401,543.133 172.36,543.135 C 172.313,543.139 172.267,543.145 172.218,543.152 C 172.14,543.165 172.062,543.185 171.987,543.213 C 171.974,543.216 171.963,543.221 171.952,543.226 C 171.945,543.228 171.938,543.232 171.93,543.235 C 171.918,543.24 171.906,543.245 171.893,543.251 C 171.866,543.263 171.84,543.277 171.814,543.292 C 171.802,543.299 171.79,543.307 171.777,543.314 C 171.765,543.322 171.752,543.33 171.739,543.34 C 171.724,543.35 171.708,543.362 171.694,543.373 C 171.678,543.385 171.664,543.398 171.65,543.408 L 171.633,543.424 L 171.624,543.432 L 171.619,543.437 L 171.612,543.443 C 171.588,543.467 171.566,543.492 171.545,543.516 C 171.535,543.529 171.524,543.543 171.513,543.557 C 171.504,543.57 171.495,543.583 171.486,543.597 C 171.477,543.609 171.47,543.622 171.463,543.635 C 171.451,543.654 171.441,543.672 171.431,543.692 C 171.424,543.707 171.417,543.724 171.41,543.74 C 171.398,543.766 171.389,543.794 171.381,543.82 C 171.374,543.839 171.368,543.861 171.363,543.88 C 171.35,543.935 171.342,543.987 171.338,544.031 C 171.335,544.048 171.335,544.063 171.334,544.078 C 171.333,544.099 171.333,544.117 171.333,544.132 L 171.333,544.166 C 171.334,544.197 171.338,544.236 171.344,544.28 C 171.347,544.307 171.353,544.336 171.361,544.367 C 171.365,544.387 171.37,544.407 171.377,544.428 C 171.384,544.447 171.39,544.466 171.398,544.487 C 171.402,544.5 171.408,544.513 171.414,544.526 C 171.422,544.544 171.431,544.563 171.44,544.581 C 171.447,544.595 171.455,544.609 171.464,544.623 C 171.481,544.653 171.501,544.683 171.524,544.714 C 171.532,544.725 171.54,544.736 171.549,544.747 C 171.561,544.76 171.572,544.774 171.585,544.788 C 171.592,544.794 171.598,544.801 171.605,544.808 C 171.703,544.907 171.814,544.981 171.928,545.032 C 171.947,545.04 171.965,545.048 171.983,545.055 C 172.001,545.062 172.019,545.069 172.038,545.075 C 172.057,545.082 172.077,545.088 172.097,545.093 C 172.116,545.099 172.136,545.104 172.154,545.109 C 172.173,545.113 172.193,545.116 172.211,545.12 C 172.232,545.123 172.252,545.127 172.273,545.129 C 172.294,545.132 172.314,545.134 172.335,545.135 C 172.375,545.139 172.412,545.141 172.449,545.141 C 172.463,545.141 172.475,545.141 172.488,545.14 C 172.516,545.14 172.542,545.139 172.569,545.138 C 172.588,545.135 172.606,545.135 172.624,545.134 C 172.656,545.13 172.69,545.126 172.721,545.121 C 172.748,545.117 172.776,545.113 172.8,545.109 C 172.839,545.1 172.874,545.091 172.907,545.082 C 172.926,545.078 172.945,545.072 172.962,545.067 C 172.988,545.058 173.01,545.052 173.028,545.046 C 173.057,545.035 173.075,545.03 173.075,545.03 C 173.1,545.021 173.127,545.009 173.152,545 C 173.187,544.985 173.219,544.972 173.251,544.957 C 173.276,544.945 173.301,544.933 173.324,544.922 C 173.344,544.913 173.362,544.903 173.378,544.895 C 173.408,544.879 173.433,544.865 173.453,544.854 L 173.508,544.824 L 173.508,545.353 C 173.508,545.353 173.475,545.366 173.418,545.388 C 173.393,545.397 173.363,545.408 173.329,545.42 C 173.31,545.427 173.29,545.434 173.269,545.441 C 173.253,545.446 173.236,545.453 173.218,545.458 C 173.197,545.465 173.177,545.472 173.156,545.479 C 173.14,545.483 173.124,545.488 173.107,545.493 L 173.093,545.497 C 173.078,545.501 173.061,545.505 173.047,545.51 C 173.026,545.514 173.007,545.52 172.987,545.526 C 172.975,545.528 172.962,545.53 172.949,545.534 C 172.928,545.539 172.908,545.544 172.885,545.548 C 172.864,545.552 172.842,545.557 172.82,545.56"
         style="fill:#000000;fill-rule:evenodd;stroke:none" />
      <g
         id="g4196"
         transform="translate(166.9602,543.9288)">
        <path
           id="path4198"
           d="M 0,0 L 0,-0.775 L 0.503,-0.775 C 0.503,-0.775 0.513,-0.774 0.528,-0.774 C 0.546,-0.773 0.57,-0.771 0.6,-0.77 C 0.653,-0.764 0.726,-0.754 0.796,-0.73 C 0.859,-0.71 0.92,-0.678 0.967,-0.631 C 0.985,-0.612 1,-0.593 1.013,-0.574 C 1.051,-0.512 1.062,-0.449 1.064,-0.414 C 1.065,-0.397 1.065,-0.389 1.065,-0.389 C 1.065,-0.389 1.065,-0.381 1.065,-0.37 C 1.065,-0.355 1.063,-0.326 1.055,-0.295 C 1.045,-0.258 1.028,-0.216 0.997,-0.176 C 0.99,-0.169 0.983,-0.162 0.976,-0.155 C 0.963,-0.141 0.947,-0.127 0.931,-0.115 C 0.903,-0.095 0.872,-0.078 0.838,-0.063 C 0.793,-0.043 0.742,-0.029 0.685,-0.018 C 0.658,-0.013 0.627,-0.008 0.597,-0.006 C 0.577,-0.003 0.559,-0.003 0.539,-0.001 C 0.521,0 0.504,0 0.485,0 L 0,0 z "
           style="fill:#000000;fill-rule:evenodd;stroke:none" />
      </g>
      <g
         id="g4200"
         transform="translate(166.9602,545.1079)">
        <path
           id="path4202"
           d="M 0,0 L 0,-0.735 L 0.243,-0.735 C 0.243,-0.735 0.259,-0.735 0.281,-0.734 C 0.299,-0.734 0.317,-0.733 0.336,-0.731 C 0.386,-0.728 0.456,-0.721 0.524,-0.702 C 0.539,-0.698 0.552,-0.693 0.564,-0.689 C 0.619,-0.669 0.671,-0.642 0.713,-0.602 C 0.745,-0.57 0.765,-0.534 0.779,-0.5 C 0.797,-0.458 0.803,-0.418 0.806,-0.39 C 0.807,-0.363 0.807,-0.348 0.807,-0.348 C 0.807,-0.348 0.807,-0.336 0.807,-0.316 C 0.806,-0.285 0.799,-0.232 0.773,-0.183 C 0.761,-0.159 0.745,-0.135 0.721,-0.113 C 0.694,-0.087 0.662,-0.065 0.626,-0.049 C 0.557,-0.019 0.478,-0.007 0.413,-0.003 C 0.383,-0.001 0.357,0 0.335,0 L 0,0 z "
           style="fill:#000000;fill-rule:evenodd;stroke:none" />
      </g>
      <path
         id="path4204"
         d="M 165.352,546.109 L 169.542,546.109 L 169.542,542.166 L 165.352,542.166 L 165.352,546.109 z M 166.451,545.557 L 166.451,542.716 L 167.52,542.716 C 167.52,542.716 168.042,542.703 168.329,542.99 C 168.564,543.224 168.547,543.496 168.547,543.496 C 168.547,543.496 168.564,543.778 168.347,543.996 C 168.161,544.18 167.926,544.23 167.926,544.23 C 167.926,544.23 168.032,544.279 168.115,544.362 C 168.153,544.4 168.289,544.523 168.289,544.822 C 168.289,545.123 168.089,545.297 168.089,545.297 C 168.089,545.297 167.869,545.557 167.373,545.557 L 166.451,545.557 z "
         style="fill:#000000;fill-rule:evenodd;stroke:none" />
      <g
         id="g4206"
         transform="translate(162.1318,543.9288)">
        <path
           id="path4208"
           d="M 0,0 L 0,-0.775 L 0.504,-0.775 C 0.504,-0.775 0.513,-0.774 0.53,-0.774 C 0.546,-0.773 0.571,-0.771 0.6,-0.77 C 0.655,-0.764 0.726,-0.754 0.796,-0.73 C 0.859,-0.71 0.92,-0.678 0.968,-0.631 C 0.986,-0.612 1.001,-0.593 1.013,-0.574 C 1.052,-0.512 1.062,-0.449 1.064,-0.414 C 1.066,-0.397 1.066,-0.389 1.066,-0.389 L 1.066,-0.37 C 1.064,-0.355 1.062,-0.326 1.055,-0.295 C 1.046,-0.258 1.028,-0.216 0.996,-0.176 C 0.991,-0.169 0.984,-0.162 0.977,-0.155 C 0.963,-0.141 0.948,-0.127 0.932,-0.115 C 0.904,-0.095 0.873,-0.078 0.839,-0.063 C 0.793,-0.043 0.742,-0.029 0.687,-0.018 C 0.659,-0.013 0.628,-0.008 0.598,-0.006 C 0.579,-0.003 0.559,-0.003 0.54,-0.001 C 0.523,0 0.504,0 0.487,0 L 0,0 z "
           style="fill:#000000;fill-rule:evenodd;stroke:none" />
      </g>
      <g
         id="g4210"
         transform="translate(162.1318,545.1079)">
        <path
           id="path4212"
           d="M 0,0 L 0,-0.735 L 0.244,-0.735 C 0.244,-0.735 0.26,-0.735 0.281,-0.734 C 0.298,-0.734 0.319,-0.733 0.336,-0.731 C 0.386,-0.728 0.456,-0.721 0.525,-0.702 C 0.539,-0.698 0.552,-0.693 0.566,-0.689 C 0.62,-0.669 0.672,-0.642 0.712,-0.602 C 0.745,-0.57 0.765,-0.534 0.78,-0.5 C 0.797,-0.458 0.804,-0.418 0.806,-0.39 C 0.808,-0.363 0.808,-0.348 0.808,-0.348 L 0.808,-0.316 C 0.805,-0.285 0.799,-0.232 0.774,-0.183 C 0.762,-0.159 0.745,-0.135 0.723,-0.113 C 0.695,-0.087 0.662,-0.065 0.626,-0.049 C 0.557,-0.019 0.479,-0.007 0.412,-0.003 C 0.384,-0.001 0.357,0 0.336,0 L 0,0 z "
           style="fill:#000000;fill-rule:evenodd;stroke:none" />
      </g>
      <path
         id="path4214"
         d="M 160.523,546.109 L 164.713,546.109 L 164.713,542.166 L 160.523,542.166 L 160.523,546.109 z M 161.623,545.557 L 161.623,542.716 L 162.692,542.716 C 162.692,542.716 163.214,542.703 163.501,542.99 C 163.735,543.224 163.719,543.496 163.719,543.496 C 163.719,543.496 163.735,543.778 163.518,543.996 C 163.333,544.18 163.098,544.23 163.098,544.23 C 163.098,544.23 163.205,544.279 163.286,544.362 C 163.325,544.4 163.461,544.523 163.461,544.822 C 163.461,545.123 163.26,545.297 163.26,545.297 C 163.26,545.297 163.041,545.557 162.546,545.557 L 161.623,545.557 z "
         style="fill:#000000;fill-rule:evenodd;stroke:none" />
      <g
         id="g4216"
         transform="translate(160.9915,540.7874)">
        <path
           id="path4218"
           d="M 0,0 L 0.302,0 C 0.755,0 0.938,-0.186 0.942,-0.492 C 0.946,-0.765 0.803,-1.023 0.302,-1.023 L 0,-1.023 L 0,0 z M -0.468,0.402 L -0.468,-2.858 L 0,-2.858 L 0,-1.443 L 0.196,-1.443 C 0.436,-1.443 0.63,-1.52 1.062,-2.189 L 1.492,-2.858 L 2.051,-2.858 C 1.826,-2.548 1.745,-2.438 1.605,-2.213 C 1.357,-1.807 1.176,-1.506 0.88,-1.31 C 1.228,-1.171 1.425,-0.889 1.425,-0.511 C 1.425,0.053 1.014,0.402 0.354,0.402 L -0.468,0.402 z "
           style="fill:#000000;fill-rule:evenodd;stroke:none" />
      </g>
      <g
         id="g4220"
         transform="translate(164.5737,540.4907)">
        <path
           id="path4222"
           d="M 0,0 L 0.526,-1.18 L -0.488,-1.18 L 0,0 z M 0.172,0.717 L -0.158,0.717 L -1.559,-2.561 L -1.081,-2.561 L -0.669,-1.601 L 0.717,-1.601 L 1.152,-2.561 L 1.629,-2.561 L 0.172,0.717 z "
           style="fill:#000000;fill-rule:evenodd;stroke:none" />
      </g>
      <g
         id="g4224"
         transform="translate(167.0609,540.7683)">
        <path
           id="path4226"
           d="M 0,0 L 0.72,0 C 1.634,0 2.05,-0.555 2.05,-1.209 C 2.05,-1.611 1.806,-2.419 0.746,-2.419 L 0,-2.419 L 0,0 z M -0.469,-2.839 L 0.802,-2.839 C 1.878,-2.839 2.532,-2.046 2.532,-1.209 C 2.532,-0.44 2.002,0.421 0.798,0.421 L -0.469,0.421 L -0.469,-2.839 z "
           style="fill:#000000;fill-rule:evenodd;stroke:none" />
      </g>
      <path
         id="path4228"
         d="M 170.133,541.19 L 170.601,541.19 L 170.601,537.93 L 170.133,537.93 L 170.133,541.19 z "
         style="fill:#000000;fill-rule:evenodd;stroke:none" />
      <g
         id="g4230"
         transform="translate(171.624,539.5589)">
        <path
           id="path4232"
           d="M 0,0 C 0,0.717 0.54,1.242 1.267,1.242 C 1.998,1.242 2.538,0.717 2.538,0 C 2.538,-0.712 1.998,-1.243 1.267,-1.243 C 0.54,-1.243 0,-0.712 0,0 M -0.483,0 C -0.483,-0.884 0.192,-1.672 1.257,-1.672 C 2.361,-1.672 3.021,-0.879 3.021,0 C 3.021,0.908 2.343,1.673 1.267,1.673 C 0.21,1.673 -0.483,0.903 -0.483,0"
           style="fill:#000000;fill-rule:evenodd;stroke:none" />
      </g>
      <g
         id="g4234"
         transform="translate(193.3867,532.304)">
        <path
           id="path4236"
           d="M 0,0 L -2.102,0.001 L -2.096,-2.661 L -5.86,-2.666 L -5.865,-0.272 C -5.865,-0.272 -5.869,-0.007 -6.185,0.004 L -11.568,0 L -11.567,2.209 C -11.566,2.531 -11.407,3.005 -11.215,3.263 L -5.459,10.981 C -5.266,11.239 -4.846,11.45 -4.524,11.449 L -2.095,11.448 L -2.1,3.098 L 0.002,3.103 L 0,0 z M -5.606,14.443 C -11.312,14.443 -15.937,9.815 -15.937,4.107 C -15.937,-1.602 -11.312,-6.229 -5.606,-6.229 C 0.099,-6.229 4.724,-1.602 4.724,4.107 C 4.724,9.815 0.099,14.443 -5.606,14.443"
           style="fill:#002d5d;fill-rule:nonzero;stroke:none" />
      </g>
      <g
         id="g4238"
         transform="translate(187.8435,537.7358)">
        <path
           id="path4240"
           d="M 0,0 C -0.817,-0.017 -1.468,-0.695 -1.45,-1.512 C -1.431,-2.221 -0.901,-2.804 -0.208,-2.928 L 0.324,-3.023 C 0.186,-3.965 -0.166,-4.67 -0.958,-5.253 C 0.11,-4.779 0.929,-3.756 1.307,-2.673 C 1.686,-1.588 1.471,0.03 0,0"
           style="fill:#002d5d;fill-rule:nonzero;stroke:none" />
      </g>
    </g>
  </g>
</svg>
